<?xml version="1.0" standalone="no"?>
<!DOCTYPE svg PUBLIC "-//W3C//DTD SVG 1.1//EN" "http://www.w3.org/Graphics/SVG/1.1/DTD/svg11.dtd" >
<svg xmlns="http://www.w3.org/2000/svg">
<metadata>
This is a custom SVG webfont generated by Font Squirrel.
Copyright   : Copyright C 2004 Hoefler  FrereJones Typography Inc wwwtypographycom
Foundry     : C Hoefler  FrereJones Typography Inc
</metadata>
<defs>
<font id="LuzSansBookLuzSansBook" horiz-adv-x="1163" >
<font-face units-per-em="2048" ascent="1556" descent="-492" />
<missing-glyph horiz-adv-x="518" />
<glyph unicode=" "  horiz-adv-x="518" />
<glyph unicode="&#x09;" horiz-adv-x="518" />
<glyph unicode="&#xa0;" horiz-adv-x="518" />
<glyph unicode="!" horiz-adv-x="680" d="M242 76q0 20 8 37.5t21.5 31t31 21.5t37.5 8q21 0 39 -8t31.5 -21.5t21.5 -31t8 -37.5q0 -21 -8 -39.5t-21.5 -32t-31.5 -21.5t-39 -8q-20 0 -37.5 8t-31 21.5t-21.5 32t-8 39.5zM268 401v1143h144v-1143h-144z" />
<glyph unicode="&#x22;" horiz-adv-x="899" d="M141 1051l164 510l146 -21l-211 -508zM461 1051l164 510l145 -21l-211 -508z" />
<glyph unicode="#" horiz-adv-x="1409" d="M104 457l19 116h256l55 398h-248l19 119h246l63 454h123l-64 -454h355l61 454h123l-63 -454h258l-19 -119h-256l-55 -398h248l-19 -116h-245l-64 -457h-123l66 457h-357l-61 -457h-123l63 457h-258zM500 573h354l55 398h-352z" />
<glyph unicode="$" horiz-adv-x="1112" d="M57 297l107 78q24 -59 61.5 -106.5t85 -80.5t103 -51t114.5 -18q75 0 135 22t101.5 61.5t63.5 96t22 125.5q0 77 -30.5 130t-80.5 91t-113.5 66.5t-130 56.5t-130 60.5t-113.5 79t-80.5 112t-30.5 158.5q0 74 26 139.5t73.5 117t115 85.5t150.5 45v217h119v-215 q118 -11 208 -65.5t146 -141.5l-90 -105q-28 38 -62.5 69t-73.5 53.5t-82 35t-87 12.5q-66 0 -118.5 -18.5t-89 -51t-56 -75.5t-19.5 -92q0 -72 30.5 -121t81 -84.5t114.5 -63t130.5 -56t130.5 -63t114.5 -84.5t81 -120.5t30.5 -171.5q0 -82 -27 -156t-77.5 -133t-122.5 -99 t-162 -54v-230h-119v223q-81 3 -152 28t-129 67.5t-101 100t-67 126.5z" />
<glyph unicode="%" horiz-adv-x="1612" d="M51 1176q0 81 25 151t69 122t105.5 82t134.5 30q74 0 135.5 -30t105.5 -82t68.5 -122t24.5 -151t-25 -151t-69 -122t-105.5 -82t-134.5 -30t-134.5 30t-105.5 82t-69 122t-25 151zM166 1176q0 -61 15.5 -112t44 -88t69 -58t90.5 -21t90.5 21t69 58t44 88t15.5 112 q0 60 -15.5 110.5t-44 88t-69 58.5t-90.5 21t-90.5 -21t-69 -58t-44 -88t-15.5 -111zM301 0l909 1573l97 -29l-912 -1573zM895 369q0 81 25 151t69 122t105.5 82t134.5 30t134 -30t105.5 -82t69.5 -122t25 -151t-25 -151t-69.5 -122t-105.5 -82t-134 -30q-74 0 -135.5 30 t-105.5 82t-68.5 122t-24.5 151zM1010 369q0 -60 15 -111t43.5 -88.5t69 -58.5t91.5 -21q50 0 90.5 21t69 58t44 88t15.5 112q0 60 -15.5 111t-44 88t-69 58t-90.5 21q-51 0 -91.5 -21t-69 -58t-43.5 -88t-15 -111z" />
<glyph unicode="&#x26;" horiz-adv-x="1368" d="M66 399q0 75 19 142.5t62.5 127t115 112t177.5 98.5q-86 92 -123.5 179.5t-37.5 172.5q0 74 25 136.5t71.5 109t111.5 72.5t146 26q75 0 137 -26.5t105.5 -70.5t67.5 -101.5t24 -119.5q0 -136 -84 -241.5t-242 -177.5l369 -459q23 29 48 68.5t48.5 81t44 82.5t33.5 73 l106 -66q-14 -35 -36 -79t-48.5 -89.5t-55.5 -89.5t-56 -79l231 -283h-164l-157 192q-113 -112 -232 -167.5t-256 -55.5q-82 0 -162.5 31.5t-144.5 88.5t-103.5 136.5t-39.5 175.5zM213 410q0 -59 24.5 -114.5t68 -98t103.5 -68t130 -25.5q44 0 90 9.5t93.5 31.5t97 58 t100.5 88l-402 493q-86 -37 -144.5 -76.5t-94 -84.5t-51 -97.5t-15.5 -115.5zM418 1233q0 -68 34 -143.5t111 -161.5q133 59 200.5 140.5t67.5 174.5q0 39 -13 77t-38 67t-61.5 47t-83.5 18q-49 0 -89 -17t-68.5 -46.5t-44 -69.5t-15.5 -86z" />
<glyph unicode="'" horiz-adv-x="580" d="M141 1051l164 510l146 -21l-211 -508z" />
<glyph unicode="(" horiz-adv-x="545" d="M63 582q0 146 29 285t81.5 265.5t126 239t161.5 205.5l104 -90q-83 -90 -149 -195.5t-112.5 -221t-71.5 -238.5t-25 -248q0 -127 24.5 -250t70.5 -238.5t112.5 -222t150.5 -199.5l-104 -88q-88 92 -161.5 204.5t-126 240t-81.5 266.5t-29 285z" />
<glyph unicode=")" horiz-adv-x="545" d="M-27 -326q84 93 150.5 199.5t112 222t70 238.5t24.5 250q0 126 -24 248.5t-69.5 237t-112 220t-151.5 197.5l103 90q89 -93 162 -205.5t125.5 -239t81 -265.5t28.5 -285t-28.5 -285t-81 -266.5t-125.5 -240t-162 -204.5z" />
<glyph unicode="*" horiz-adv-x="844" d="M82 1061l242 133l-242 137l51 88l238 -143l-4 278h106l-4 -278l238 143l51 -88l-242 -137l242 -133l-51 -90l-238 143l4 -278h-106l4 278l-238 -143z" />
<glyph unicode="+" horiz-adv-x="1272" d="M125 715v135h430v430h137v-430h432v-135h-432v-434h-137v434h-430z" />
<glyph unicode="," horiz-adv-x="662" d="M182 -319q39 29 70 67t51 79t29 83t4 78q-57 -6 -88 21.5t-31 72.5q0 42 28 69t74 27q30 0 53 -12.5t38.5 -35t23.5 -53.5t8 -67q0 -45 -13 -95.5t-39.5 -101t-66.5 -97.5t-94 -83z" />
<glyph unicode="-" horiz-adv-x="889" d="M102 590v131h684v-131h-684z" />
<glyph unicode="." horiz-adv-x="639" d="M223 72q0 20 7.5 37.5t20.5 31t30.5 21.5t37.5 8t38 -8t31 -21.5t20.5 -31t7.5 -37.5q0 -41 -28 -69t-69 -28q-40 0 -68 28t-28 69z" />
<glyph unicode="/" horiz-adv-x="1161" d="M4 -379l1038 1956l117 -29l-1036 -1958z" />
<glyph unicode="0" horiz-adv-x="1296" d="M72 780q0 89 16.5 182t48.5 180.5t80.5 165t113 135.5t144.5 92t176 34t176 -34t144 -92t111.5 -135.5t79 -165t47.5 -180.5t16 -182q0 -88 -15.5 -182t-47.5 -183.5t-80 -169t-112 -140t-145.5 -95.5t-179.5 -35t-179 35t-144.5 95.5t-110.5 140t-78 169t-46 183.5 t-15 182zM227 780q0 -69 11 -145t33 -149.5t56 -140t81 -117t106.5 -80t132.5 -29.5q74 0 134 29.5t106.5 79.5t81 116t56.5 139.5t33 150t11 146.5q0 62 -11 134.5t-33 144t-56 138t-80.5 117t-105.5 81t-132 30.5q-74 0 -134 -30t-107 -80.5t-81.5 -116.5t-57 -138 t-33.5 -144t-11 -136z" />
<glyph unicode="1" horiz-adv-x="741" d="M76 1403l37 141h360v-1544h-158v1403h-239z" />
<glyph unicode="2" horiz-adv-x="1239" d="M94 4l660 721q91 100 140.5 194.5t49.5 194.5q0 68 -23.5 125.5t-67.5 98.5t-107 64t-142 23q-70 0 -129 -23.5t-101 -66t-65.5 -102t-23.5 -131.5v-17h-156v17q4 117 43.5 205t105.5 146t154 87t189 29q104 0 191.5 -34t151.5 -95.5t100 -146.5t36 -187 q0 -65 -15.5 -124.5t-45.5 -116t-73.5 -113t-99.5 -115.5l-458 -496h692v-141h-1002z" />
<glyph unicode="3" horiz-adv-x="1161" d="M92 393v13h160v-13q5 -60 29 -110.5t63.5 -87.5t93 -57.5t117.5 -20.5q68 0 126 24.5t101 67.5t67.5 101.5t24.5 125.5q0 68 -24.5 124t-67 96t-100.5 62t-125 23h-25v129h23q63 3 116.5 24.5t93 59.5t61.5 90t22 115q0 58 -20.5 108t-57.5 86.5t-89 57.5t-114 21 q-60 0 -107.5 -18.5t-82 -52.5t-54.5 -81.5t-24 -105.5v-13h-152v13q7 90 39 162.5t86.5 124.5t131.5 80t174 28q91 0 168.5 -31.5t134 -86t88.5 -128t32 -158.5q0 -57 -15 -109.5t-43.5 -97.5t-69.5 -81.5t-93 -61.5v-2q59 -23 105 -62t78.5 -89t49.5 -107.5t17 -116.5 q0 -99 -35 -183.5t-97 -147t-148.5 -97.5t-188.5 -35q-95 0 -179.5 31t-148.5 86.5t-101.5 132.5t-39.5 168z" />
<glyph unicode="4" horiz-adv-x="1231" d="M35 397v54l815 1138h80v-1057h211v-135h-211v-397h-152v397h-743zM250 532h528v730h-8l-520 -727v-3z" />
<glyph unicode="5" horiz-adv-x="1204" d="M43 209l84 100q75 -90 171 -140t206 -50q88 0 164.5 30.5t132.5 85.5t88.5 130t32.5 165q0 82 -29 152.5t-81.5 123t-127 82.5t-166.5 30q-91 0 -179.5 -29.5t-168.5 -77.5l-8 6l166 727h702v-141h-586l-100 -397q47 23 98 34t113 11q122 0 219.5 -39.5t165.5 -110 t104.5 -166.5t36.5 -209q0 -117 -43 -218t-119 -175t-180.5 -116t-226.5 -42q-142 0 -263 61t-206 173z" />
<glyph unicode="6" horiz-adv-x="1296" d="M82 522q0 108 35 200.5t102 186.5l465 652l152 -48l-359 -491l4 -4q47 20 96 30.5t105 10.5q112 0 209 -42t169 -114.5t113 -170t41 -208.5q0 -106 -41.5 -205.5t-116.5 -175.5t-179.5 -122t-229.5 -46q-116 0 -218.5 41.5t-179.5 115t-122 173.5t-45 217zM238 520 q0 -84 32.5 -158.5t88 -129.5t130.5 -87t160 -32q84 0 159 32t130.5 87t88 129.5t32.5 158.5t-32.5 159t-88 130.5t-130.5 88t-159 32.5q-85 0 -160 -32.5t-130.5 -88t-88 -130.5t-32.5 -159z" />
<glyph unicode="7" horiz-adv-x="1231" d="M82 1403v141h1130l-911 -1556l-154 37l818 1378h-883z" />
<glyph unicode="8" horiz-adv-x="1184" d="M119 403q0 140 62.5 240.5t189.5 159.5v2q-51 25 -91.5 62.5t-69 83.5t-43.5 98t-15 106q0 89 33.5 165t92.5 131.5t140 86.5t176 31t175.5 -31t139 -86.5t92 -131.5t33.5 -165q0 -54 -15.5 -106t-44 -98t-69 -83.5t-90.5 -62.5v-2q127 -59 189.5 -159.5t62.5 -240.5 q0 -94 -37 -172.5t-101 -135.5t-150.5 -88.5t-184.5 -31.5q-99 0 -185.5 31.5t-151 88.5t-101.5 135.5t-37 172.5zM274 426q0 -65 25.5 -122t69 -99.5t101.5 -67t124 -24.5q65 0 122.5 24.5t100.5 67t68.5 99.5t25.5 122t-25.5 121.5t-68.5 98.5t-100.5 66.5t-122.5 24.5 q-66 0 -124 -24.5t-101.5 -66.5t-69 -98.5t-25.5 -121.5zM303 1149q0 -59 22.5 -111t62 -90.5t92.5 -61t114 -22.5q60 0 112.5 22.5t92 61t62 90.5t22.5 111t-23 111.5t-62.5 91.5t-92 61.5t-111.5 22.5q-60 0 -113 -22.5t-92.5 -61.5t-62.5 -91.5t-23 -111.5z" />
<glyph unicode="9" horiz-adv-x="1296" d="M84 1024q0 116 44.5 215.5t122 173t181 115t221.5 41.5q119 0 221.5 -42t178 -116.5t118.5 -175.5t43 -219q0 -105 -35 -195t-100 -180l-467 -653l-149 47l358 489l-4 4q-48 -20 -95.5 -29.5t-103.5 -9.5q-111 0 -208.5 41.5t-169.5 114t-114 170t-42 209.5zM238 1026 q0 -84 32.5 -158.5t89 -130t131.5 -87.5t160 -32q86 0 160.5 32t130 87.5t87.5 130t32 158.5t-32.5 158t-88 129t-130 87t-159.5 32q-84 0 -159.5 -32t-131.5 -87t-89 -129t-33 -158z" />
<glyph unicode=":" horiz-adv-x="647" d="M227 72q0 20 7.5 37.5t20.5 31t31 21.5t38 8t37.5 -8t31 -21.5t21.5 -31t8 -37.5t-8 -38t-21.5 -31t-31 -20.5t-37.5 -7.5q-41 0 -69 28t-28 69zM227 893q0 20 7.5 37.5t20.5 31t31 21.5t38 8t37.5 -8t31 -21.5t21.5 -31t8 -37.5t-8 -37.5t-21.5 -30.5t-31 -20.5 t-37.5 -7.5q-41 0 -69 28t-28 68z" />
<glyph unicode=";" horiz-adv-x="647" d="M182 -319q39 29 70 67t51 79t29 83t4 78q-57 -6 -88 21.5t-31 72.5q0 42 28 69t74 27q30 0 53 -12.5t38.5 -35t23.5 -53.5t8 -67q0 -45 -13 -95.5t-39.5 -101t-66.5 -97.5t-94 -83zM238 893q0 20 7.5 37.5t20.5 31t30.5 21.5t37.5 8t37.5 -8t30.5 -21.5t20.5 -31 t7.5 -37.5q0 -40 -28 -68t-68 -28t-68 28t-28 68z" />
<glyph unicode="&#x3c;" horiz-adv-x="1202" d="M113 770v16l854 455l73 -113l-671 -348l669 -352l-71 -115z" />
<glyph unicode="=" horiz-adv-x="1272" d="M125 524v135h997v-135h-997zM125 901v135h997v-135h-997z" />
<glyph unicode="&#x3e;" horiz-adv-x="1237" d="M117 1128l73 113l854 -455v-16l-854 -457l-71 115l669 352z" />
<glyph unicode="?" horiz-adv-x="1044" d="M100 1386q23 42 59 75.5t83 57.5t102.5 37t116.5 13q111 0 203.5 -35t160 -97.5t105 -149t37.5 -189.5q0 -104 -34.5 -189t-96.5 -146.5t-147.5 -97t-186.5 -40.5v-228h-150v346h60q95 2 170 26.5t127 69.5t79 110t27 147q0 75 -26 137t-72 106t-109.5 68.5t-138.5 24.5 q-47 0 -91 -10t-82 -27.5t-68.5 -41.5t-49.5 -53zM332 76q0 20 7.5 37.5t20.5 31t30.5 21.5t37.5 8q21 0 39.5 -8t32 -21.5t21 -31t7.5 -37.5q0 -44 -28.5 -72.5t-71.5 -28.5q-40 0 -68 28.5t-28 72.5z" />
<glyph unicode="@" horiz-adv-x="1776" d="M78 731q0 125 30.5 236t85 204t131 167t169 125.5t198 78.5t217.5 27q174 0 320 -53.5t251 -148t163.5 -224.5t58.5 -283q0 -101 -26.5 -187.5t-73.5 -150t-111 -99.5t-139 -36q-97 0 -156 42t-76 124h-4q-19 -29 -50 -58t-70.5 -51.5t-87 -36.5t-99.5 -14q-67 0 -128 23 t-106.5 65.5t-72.5 102.5t-27 135q0 98 33.5 179t91 139.5t133.5 91t160 32.5q49 0 91.5 -12.5t77 -34t59.5 -50t40 -60.5h4l33 131h123l-94 -437q-11 -45 -7 -84t21.5 -67.5t47 -45t69.5 -16.5q60 0 106 29.5t77 80.5t47 120t16 149q0 127 -51 238t-142 194t-216.5 131 t-274.5 48q-167 0 -304 -57.5t-235 -158t-151.5 -236t-53.5 -292.5q0 -144 54.5 -265t151.5 -209t231 -137.5t294 -49.5q122 0 232.5 29.5t191.5 80.5v-106q-39 -23 -88.5 -41.5t-105 -31.5t-115.5 -19.5t-121 -6.5q-104 0 -206 22t-193.5 64.5t-169 106.5t-134 148 t-88.5 188t-32 227zM596 731q0 69 23.5 128t64 102t95.5 67.5t118 24.5q48 0 89 -16.5t70 -46t45.5 -69t16.5 -85.5q0 -67 -19.5 -127.5t-56.5 -106t-89.5 -72t-118.5 -26.5q-52 0 -96 16.5t-75.5 46.5t-49 71.5t-17.5 92.5z" />
<glyph unicode="A" horiz-adv-x="1370" d="M6 0l643 1585h76l639 -1585h-172l-186 461h-652l-184 -461h-164zM408 596h546l-272 680h-2z" />
<glyph unicode="B" d="M160 0v1544h360q110 0 196 -27t145.5 -77.5t90.5 -123t31 -163.5q0 -109 -55 -196.5t-164 -135.5v-4q78 -18 136.5 -53.5t97.5 -85t59 -111.5t20 -131q0 -95 -32 -175t-94.5 -138t-154 -90.5t-210.5 -32.5h-426zM317 135h240q95 0 164 23t113.5 64.5t66 97.5t21.5 122 q0 64 -22.5 116.5t-68 90.5t-115 59t-163.5 21h-236v-594zM317 862h199q77 0 135.5 21t98 59t59.5 90.5t20 116.5q0 128 -86 194t-251 66h-175v-547z" />
<glyph unicode="C" horiz-adv-x="1473" d="M72 772q0 109 27.5 211t78.5 190.5t123.5 161.5t162.5 125t194.5 80.5t220.5 28.5q142 0 264 -44.5t221 -129.5v-191h-4q-42 48 -97 88t-118 68.5t-130.5 44.5t-135.5 16q-138 0 -256.5 -49.5t-205 -136.5t-135.5 -206t-49 -257q0 -89 23 -171.5t65 -155t101.5 -131.5 t131.5 -101.5t155.5 -66t173.5 -23.5q62 0 129 15t131 42t120 65.5t97 86.5h4v-189q-108 -78 -227 -123t-256 -45q-118 0 -224 28.5t-196 80.5t-162 125t-122.5 161.5t-77.5 190.5t-27 211z" />
<glyph unicode="D" horiz-adv-x="1378" d="M160 0v1544h366q114 0 216 -27t189 -76.5t157 -119t119 -155.5t75.5 -185.5t26.5 -208.5q0 -106 -25.5 -205t-74 -184.5t-117.5 -156t-156 -121t-190.5 -78t-219.5 -27.5h-366zM317 141h181q161 0 282 51t202 137t122 201t41 242q0 128 -40.5 242.5t-121.5 200.5 t-202.5 137t-282.5 51h-181v-1262z" />
<glyph unicode="E" horiz-adv-x="1055" d="M160 0v1544h764v-141h-607v-518h590v-137h-590v-607h607v-141h-764z" />
<glyph unicode="F" horiz-adv-x="948" d="M160 0v1544h674v-141h-517v-506h496v-141h-496v-756h-157z" />
<glyph unicode="G" horiz-adv-x="1677" d="M70 766q0 111 27.5 214t78 192.5t122 162.5t159.5 125t191 80.5t216 28.5q111 0 211 -25t187 -72.5t160 -116.5t130 -157l-135 -80q-97 146 -237 226.5t-322 80.5q-87 0 -167.5 -24t-150 -68t-126 -104t-97 -133t-62.5 -155t-22 -169q0 -89 22 -172t62.5 -155.5 t98 -132.5t128 -103t152.5 -66.5t172 -23.5q111 0 212.5 36t179 103t125.5 161.5t53 211.5h-510v137h678q0 -80 -7 -151.5t-25 -137t-49.5 -126t-80.5 -117.5q-109 -128 -260.5 -194.5t-329.5 -66.5q-111 0 -212.5 29t-189 81.5t-158 125.5t-120.5 160.5t-77 188t-27 206.5z " />
<glyph unicode="H" horiz-adv-x="1499" d="M160 0v1544h157v-643h867v643h159v-1544h-159v764h-867v-764h-157z" />
<glyph unicode="I" horiz-adv-x="475" d="M160 0v1544h157v-1544h-157z" />
<glyph unicode="J" horiz-adv-x="737" d="M25 119l63 112q37 -60 81 -86t101 -26q45 0 76 12.5t50.5 42t28.5 77t9 116.5v1177h158v-1190q0 -100 -20 -172t-59.5 -118t-97.5 -67.5t-134 -21.5q-79 0 -145 34.5t-111 109.5z" />
<glyph unicode="K" horiz-adv-x="1229" d="M160 0v1544h157v-708h2l680 708h197l-719 -741l760 -803h-205l-680 723l-35 -33v-690h-157z" />
<glyph unicode="L" horiz-adv-x="834" d="M160 0v1544h157v-1403h494v-141h-651z" />
<glyph unicode="M" horiz-adv-x="1872" d="M23 0l317 1585h82l514 -1288l520 1288h84l309 -1585h-163l-230 1196h-4l-502 -1237h-37l-495 1237h-4l-234 -1196h-157z" />
<glyph unicode="N" horiz-adv-x="1669" d="M160 0v1561h76l1116 -1268h2v1251h157v-1583h-77l-1115 1272h-2v-1233h-157z" />
<glyph unicode="O" horiz-adv-x="1755" d="M70 772q0 109 28 211t79.5 190.5t124.5 161.5t162.5 125t194 80.5t218.5 28.5t217.5 -28.5t193 -80.5t162.5 -125t125 -161.5t80 -190t28 -211.5q0 -109 -28 -211t-79.5 -190.5t-124 -161.5t-162 -125t-193 -80.5t-217.5 -28.5q-116 0 -221 28.5t-194.5 80.5t-162.5 125 t-124 161.5t-79 190.5t-28 211zM231 772q0 -89 23 -172t65 -155.5t101 -132.5t131 -103t155 -66.5t173 -23.5q137 0 255 49.5t204.5 136.5t136 206.5t49.5 260.5q0 134 -51 252.5t-139 207.5t-205.5 141t-251.5 52q-138 0 -256.5 -50t-205 -138t-135.5 -207.5t-49 -257.5z " />
<glyph unicode="P" horiz-adv-x="1044" d="M160 0v1544h358q114 0 201.5 -31.5t146.5 -88t89 -135t30 -173.5q0 -94 -30 -173t-88.5 -135.5t-145.5 -88t-201 -31.5h-203v-688h-157zM317 825h175q88 0 151.5 20.5t104 58.5t60 91.5t19.5 120.5t-19.5 120.5t-60 91t-104 57.5t-151.5 20h-175v-580z" />
<glyph unicode="Q" horiz-adv-x="1755" d="M70 772q0 109 28 211t79.5 190.5t124.5 161.5t162.5 125t194 80.5t218.5 28.5t217.5 -28.5t193 -80.5t162.5 -125t125 -161.5t80 -190t28 -211.5q0 -159 -57.5 -300.5t-161.5 -248.5l217 -231h-180l-68 72q-13 14 -25 26.5t-22 22.5l-16 16l-6 6q-100 -75 -223 -117.5 t-262 -42.5q-116 0 -221 28.5t-194.5 80.5t-162.5 125t-124 161.5t-79 190.5t-28 211zM231 772q0 -89 23 -172t65 -155.5t101 -132.5t131 -103t155 -66.5t173 -23.5q109 0 206.5 33t178.5 92l-367 393h180l281 -303q77 85 121.5 196t44.5 242q0 134 -51 252.5t-139 207.5 t-205.5 141t-251.5 52q-138 0 -256.5 -50t-205 -138t-135.5 -207.5t-49 -257.5z" />
<glyph unicode="R" horiz-adv-x="1073" d="M160 0v1544h286q131 0 226.5 -29t157.5 -83t92 -132.5t30 -177.5q0 -87 -27.5 -159t-81 -124.5t-132.5 -85t-183 -40.5l498 -713h-182l-486 705h-41v-705h-157zM317 829h127q85 0 149.5 20t108.5 57t66.5 90t22.5 120q0 72 -21.5 126.5t-68.5 91.5t-120.5 56t-177.5 19 h-86v-580z" />
<glyph unicode="S" horiz-adv-x="1108" d="M51 289l103 90q26 -61 65.5 -109.5t89 -82.5t108 -52t122.5 -18q73 0 131 24t98.5 65.5t62 95.5t21.5 114q0 51 -13.5 93.5t-43.5 80t-77.5 71t-115.5 64.5l-117 55q-73 33 -133.5 70.5t-104.5 85t-68.5 106.5t-24.5 134q0 83 31 154t86 123.5t130 82t162 29.5 q69 0 130.5 -15t113.5 -42.5t95 -66t75 -85.5l-94 -103q-28 37 -62 68.5t-73.5 54t-84 35t-94.5 12.5q-56 0 -103 -16.5t-81 -46.5t-53 -73t-19 -97q0 -51 15 -90t47.5 -72t83 -63t121.5 -62l112 -51q85 -38 146 -82t100 -96t57.5 -113.5t18.5 -136.5q0 -89 -33.5 -170.5 t-95.5 -143.5t-150 -98.5t-198 -36.5q-86 0 -162.5 22.5t-139 63.5t-109.5 99t-75 129z" />
<glyph unicode="T" horiz-adv-x="969" d="M16 1403v141h930v-141h-385v-1403h-160v1403h-385z" />
<glyph unicode="U" horiz-adv-x="1399" d="M145 555v989h160v-956q0 -243 100.5 -357t305.5 -114q101 0 173.5 28t119.5 86t69.5 147t22.5 210v956h157v-989q0 -140 -35.5 -248.5t-105.5 -182.5t-173.5 -112.5t-238.5 -38.5q-133 0 -236.5 39.5t-174.5 114.5t-107.5 183t-36.5 245z" />
<glyph unicode="V" horiz-adv-x="1319" d="M2 1544h174l483 -1255h5l485 1255h168l-637 -1585h-49z" />
<glyph unicode="W" horiz-adv-x="2075" d="M10 1544h162l369 -1245h4l463 1266h67l455 -1266h2l371 1245h161l-487 -1585h-86l-449 1288h-4l-465 -1288h-84z" />
<glyph unicode="X" horiz-adv-x="1165" d="M41 0l457 788l-437 756h185l338 -622h4l346 622h180l-444 -756l452 -788h-178l-360 655h-4l-365 -655h-174z" />
<glyph unicode="Y" horiz-adv-x="1208" d="M0 1544h182l424 -743h4l418 743h180l-524 -895v-649h-160v649z" />
<glyph unicode="Z" horiz-adv-x="1221" d="M25 0l899 1403h-803v141h1075l-899 -1403h862v-141h-1134z" />
<glyph unicode="[" horiz-adv-x="598" d="M127 -401v1960h393v-134h-246v-1693h246v-133h-393z" />
<glyph unicode="\" horiz-adv-x="1153" d="M4 1548l115 29l1040 -1956l-119 -31z" />
<glyph unicode="]" horiz-adv-x="598" d="M78 -268h246v1693h-246v134h393v-1960h-393v133z" />
<glyph unicode="_" horiz-adv-x="1024" d="M102 -250h820v-135h-820v135z" />
<glyph unicode="`" horiz-adv-x="653" d="M147 1485h170l220 -332h-131z" />
<glyph unicode="a" horiz-adv-x="1196" d="M74 498q0 107 35 200.5t98.5 162.5t153 109t198.5 40q55 0 107.5 -12.5t100 -36.5t86.5 -58.5t67 -79.5h4v164h149v-987h-149v172h-4q-23 -46 -62.5 -82.5t-88 -61.5t-102.5 -38t-108 -13q-108 0 -197 39.5t-153 109.5t-99.5 165.5t-35.5 206.5zM217 496q0 -78 25.5 -149 t72.5 -125.5t114 -87t149 -32.5q85 0 150.5 33t110.5 89t68 129t23 153q0 78 -25.5 146.5t-72.5 120.5t-113.5 82t-147.5 30q-83 0 -148.5 -30.5t-111.5 -83t-70 -123.5t-24 -152z" />
<glyph unicode="b" horiz-adv-x="1208" d="M139 0v1692h150v-869h4q28 45 68 79.5t87.5 58.5t101 36.5t107.5 12.5q109 0 197.5 -39t151.5 -107.5t97 -161.5t34 -200q0 -111 -35.5 -207t-99 -166.5t-152.5 -111t-197 -40.5q-54 0 -108.5 13t-102.5 37.5t-86.5 61t-62.5 83.5h-4v-172h-150zM281 506q0 -80 23 -153 t68 -129t111 -89t152 -33q82 0 148.5 33t113.5 88t72.5 126.5t25.5 148.5q0 81 -24.5 152t-70 123t-111.5 82t-150 30q-81 0 -147.5 -30t-113 -82t-72 -120.5t-25.5 -146.5z" />
<glyph unicode="c" horiz-adv-x="993" d="M63 496q0 111 40 205.5t110.5 163t166.5 107t208 38.5q91 0 169 -23.5t146 -79.5v-153q-26 27 -60 51t-74 42t-85.5 28t-93.5 10q-81 0 -151 -29.5t-122 -81t-82 -122.5t-30 -154t29.5 -155t82 -125t123.5 -83.5t154 -30.5q103 0 181 37t138 99v-154q-71 -57 -152 -83 t-177 -26q-108 0 -202.5 38t-165.5 106t-112 164t-41 211z" />
<glyph unicode="d" horiz-adv-x="1204" d="M66 496q0 107 33.5 201t96.5 163.5t153 109.5t202 40q54 0 106 -12.5t99 -36t87 -58t70 -78.5h5v867h151v-1692h-151v172h-5q-27 -45 -65.5 -81t-86 -61.5t-100.5 -39t-108 -13.5q-110 0 -200 40t-153.5 110t-98.5 165t-35 204zM213 498q0 -77 25.5 -148t72 -126 t113 -87.5t147.5 -32.5q86 0 152 33t111 88.5t68.5 128t23.5 152.5q0 76 -26 144t-73 119.5t-114 81.5t-148 30t-146.5 -28.5t-111 -79.5t-70 -121t-24.5 -154z" />
<glyph unicode="e" horiz-adv-x="1108" d="M63 494q0 107 36 201t101 164t156 110.5t201 40.5q117 0 208.5 -39t154.5 -110q64 -71 96 -170q32 -96 31 -213v-7h-838q2 -86 31 -155.5t78.5 -118t115.5 -75t141 -26.5q111 0 192.5 54.5t135.5 146.5l125 -33q-31 -69 -78.5 -122.5t-108 -90t-131 -55.5t-147.5 -19 q-114 0 -206 40t-157.5 109.5t-101 164t-35.5 203.5zM213 575h686q-11 68 -36 126t-66 101t-100.5 67t-139.5 24q-72 0 -132 -24.5t-105 -67.5t-72.5 -101t-34.5 -125z" />
<glyph unicode="f" horiz-adv-x="563" d="M49 854v133h113v389q0 89 22 153.5t61 106t93.5 61t118.5 19.5q21 0 51.5 -4.5t50.5 -13.5v-135q-40 18 -88 18q-38 0 -68 -11.5t-50.5 -38.5t-31 -71.5t-10.5 -111.5v-361h248v-133h-248v-854h-149v854h-113z" />
<glyph unicode="g" horiz-adv-x="1196" d="M68 -102h151q5 -67 34.5 -120.5t77 -90.5t108.5 -56.5t128 -19.5q104 0 172.5 33.5t109.5 95t58 148.5t17 194v90h-4q-23 -46 -62.5 -82.5t-88 -61.5t-102.5 -38t-108 -13q-108 0 -197 39.5t-153 109.5t-99.5 165.5t-35.5 206.5q0 107 35 200.5t98.5 162.5t153 109 t198.5 40q55 0 107.5 -12.5t100 -36.5t86.5 -58.5t67 -79.5h4v164h149v-928q0 -150 -38 -259t-105.5 -179.5t-160.5 -104.5t-202 -34q-98 0 -185.5 26.5t-154.5 79t-109 130.5t-50 180zM217 496q0 -76 25.5 -147t72.5 -126t114 -88t149 -33q85 0 150.5 33t110.5 89t68 129 t23 153q0 78 -25.5 146.5t-72.5 120.5t-113.5 82t-147.5 30q-82 0 -147.5 -30t-111.5 -82.5t-70.5 -123.5t-24.5 -153z" />
<glyph unicode="h" horiz-adv-x="1059" d="M139 0v1692h150v-844h4q48 78 123.5 120t181.5 42q78 0 140 -24.5t105 -72t66 -117t23 -159.5v-637h-150v608q0 65 -11.5 116.5t-38 87.5t-70 55.5t-107.5 19.5t-113.5 -27.5t-83.5 -75.5t-51.5 -113.5t-17.5 -140.5v-530h-150z" />
<glyph unicode="i" horiz-adv-x="467" d="M139 1319q0 40 28 67t69 27q19 0 36.5 -7t30.5 -20t21 -30t8 -37q0 -19 -8 -36t-21 -30t-30.5 -20.5t-36.5 -7.5q-20 0 -38 7.5t-31 20.5t-20.5 30t-7.5 36zM160 0v987h149v-987h-149z" />
<glyph unicode="j" horiz-adv-x="467" d="M-88 -365q22 -8 43.5 -13t44.5 -5q38 0 68 11.5t50.5 39t31 72t10.5 110.5v1137h149v-1161q0 -88 -21.5 -152.5t-60.5 -107t-93.5 -63.5t-119.5 -21q-23 0 -52.5 5t-49.5 13v135zM139 1319q0 40 28 67t69 27q19 0 36.5 -7t30.5 -20t21 -30t8 -37q0 -19 -8 -36t-21 -30 t-30.5 -20.5t-36.5 -7.5q-20 0 -38 7.5t-31 20.5t-20.5 30t-7.5 36z" />
<glyph unicode="k" horiz-adv-x="928" d="M129 0v1692h150v-1110l421 405h189l-457 -432l492 -555h-185l-417 481l-43 -39v-442h-150z" />
<glyph unicode="l" horiz-adv-x="467" d="M160 0v1692h149v-1692h-149z" />
<glyph unicode="m" horiz-adv-x="1581" d="M139 0v987h150v-125h4q38 72 103.5 110t156.5 38t167.5 -43.5t121.5 -137.5q42 88 117.5 134.5t179.5 46.5q160 0 237.5 -94t77.5 -267v-649h-151v618q0 143 -50 206t-157 63q-116 0 -171 -81.5t-55 -234.5v-571h-149v586q0 78 -11 135t-36 94.5t-65 55.5t-99 18 q-108 0 -164.5 -87.5t-56.5 -266.5v-535h-150z" />
<glyph unicode="n" horiz-adv-x="1051" d="M139 0v987h150v-141h4q46 78 122.5 121t182.5 43q156 0 241 -95t85 -278v-637h-150v604q0 63 -10 115t-34.5 89.5t-67.5 58t-109 20.5q-64 0 -113 -27t-82.5 -75t-51 -113t-17.5 -140v-532h-150z" />
<glyph unicode="o" d="M63 494q0 110 38 204t106.5 163.5t165 109t213.5 39.5q118 0 213.5 -40t162.5 -110t103.5 -164t36.5 -202q0 -109 -38 -203.5t-107 -164t-165.5 -109.5t-213.5 -40t-212 40t-162.5 109.5t-104 164t-36.5 203.5zM205 494q0 -78 25 -149t73 -125t117.5 -86t157.5 -32 q90 0 160.5 31.5t119 85.5t74.5 125t26 150q0 77 -25 147.5t-73 124.5t-117 86.5t-157 32.5q-87 0 -157.5 -32t-120 -85.5t-76.5 -124.5t-27 -149z" />
<glyph unicode="p" horiz-adv-x="1208" d="M139 -559v1546h150v-153h4q30 42 70 75t87.5 55.5t100 34t106.5 11.5q109 0 197.5 -39t151.5 -107.5t97 -161.5t34 -200q0 -111 -35.5 -207t-99 -166.5t-152.5 -111t-197 -40.5q-54 0 -107.5 12.5t-101 36t-86.5 57.5t-65 77h-4v-719h-150zM281 506q0 -80 23 -152.5 t68 -127.5t111 -87.5t152 -32.5q82 0 149 32.5t114 86.5t73 125t26 148q0 78 -25.5 148t-72.5 122t-113 82.5t-147 30.5t-147.5 -29.5t-113 -80.5t-72 -119t-25.5 -146z" />
<glyph unicode="q" horiz-adv-x="1204" d="M66 496q0 107 34.5 201t97.5 163.5t152.5 109.5t200.5 40q54 0 107 -12.5t100.5 -36.5t87.5 -59.5t67 -80.5h5v166h151v-1546h-151v737h-5q-24 -48 -63 -85.5t-87.5 -63t-102.5 -39t-107 -13.5q-109 0 -199 39.5t-154 109.5t-99 164.5t-35 205.5zM215 498 q0 -79 24.5 -150.5t70 -125.5t111.5 -86t150 -32q86 0 152 33t111 88.5t68.5 128t23.5 152.5q0 76 -26 144t-73 119.5t-114 81.5t-148 30q-79 0 -143.5 -30t-110.5 -81.5t-71 -121.5t-25 -150z" />
<glyph unicode="r" horiz-adv-x="653" d="M139 0v987h150v-135h4q35 80 93.5 118t141.5 38q26 0 50 -6t47 -15l-33 -143q-22 12 -50 18t-57 6q-94 0 -145 -90t-51 -280v-498h-150z" />
<glyph unicode="s" horiz-adv-x="815" d="M49 205l90 76q19 -38 46.5 -71.5t62 -59t75.5 -40t87 -14.5q44 0 79.5 15t60.5 40.5t38.5 58.5t13.5 69q0 43 -20.5 73.5t-54 53.5t-76.5 41t-87.5 36.5t-87.5 40t-76.5 51t-54 70t-20.5 96.5q0 60 22.5 109.5t63 85t96 55t121.5 19.5q98 0 163.5 -37t113.5 -99l-82 -86 q-36 48 -83.5 76.5t-109.5 28.5q-37 0 -67 -12t-51 -32.5t-32.5 -47.5t-11.5 -58q0 -36 20.5 -61t54 -45t76.5 -37t87.5 -35.5t87.5 -41.5t76.5 -54.5t54 -74t20.5 -101.5q0 -69 -26 -127t-71.5 -100t-107 -65.5t-132.5 -23.5q-61 0 -115.5 16t-100 46t-82 72t-61.5 94z" />
<glyph unicode="t" horiz-adv-x="553" d="M84 854v133h111v340h149v-340h178v-133h-178v-854h-149v854h-111z" />
<glyph unicode="u" horiz-adv-x="1036" d="M129 397v590h150v-569q0 -67 10 -125.5t37.5 -101t75 -67t122.5 -24.5t121 24t71.5 66.5t34.5 101t9 126.5v569h149v-590q0 -210 -98 -315t-291 -105q-100 0 -174 29.5t-122 84.5t-71.5 132.5t-23.5 173.5z" />
<glyph unicode="v" horiz-adv-x="967" d="M2 987h162l321 -764h4l320 764h156l-457 -1030h-49z" />
<glyph unicode="w" horiz-adv-x="1608" d="M2 987h156l307 -756h4l311 781h51l312 -781h6l303 756h156l-432 -1030h-60l-313 776l-311 -776h-64z" />
<glyph unicode="x" horiz-adv-x="924" d="M4 0l373 508l-350 479h174l262 -371h4l258 371h170l-350 -473l375 -514h-172l-289 403h-4l-281 -403h-170z" />
<glyph unicode="y" horiz-adv-x="1030" d="M-18 987h165l381 -813h4l345 813h159l-682 -1546h-153l252 573z" />
<glyph unicode="z" horiz-adv-x="965" d="M12 0l662 854h-580v133h846l-661 -856h649v-131h-916z" />
<glyph unicode="{" horiz-adv-x="635" d="M82 500v157q34 0 60.5 14t45 38.5t28 58t9.5 72.5v389q0 90 19.5 153.5t60 104t102.5 59.5t146 19v-133q-53 0 -87.5 -11t-55 -37t-29 -70t-8.5 -110v-356q0 -59 -8 -102.5t-25.5 -75t-45.5 -52.5t-69 -36v-7q41 -14 69 -35t45.5 -52.5t25.5 -75.5t8 -103v-358 q0 -66 8.5 -109.5t29 -70t55 -37t87.5 -10.5v-134q-84 0 -146 19t-102.5 59.5t-60 104t-19.5 153.5v393q0 39 -9.5 72t-28 57t-45 38t-60.5 14z" />
<glyph unicode="|" horiz-adv-x="655" d="M258 -410v2071h139v-2071h-139z" />
<glyph unicode="}" horiz-adv-x="635" d="M82 -276q53 0 87.5 10.5t55 37t29 70t8.5 109.5v358q0 59 8 103t25.5 75.5t45.5 52.5t69 35v7q-41 15 -69 36t-45.5 52.5t-25.5 75t-8 102.5v356q0 66 -8.5 110t-29 70t-55 37t-87.5 11v133q84 0 146 -19t102.5 -59.5t60 -104t19.5 -153.5v-389q0 -39 9.5 -72.5t28 -58 t45 -38.5t60.5 -14v-157q-34 0 -60.5 -14t-45 -38t-28 -57t-9.5 -72v-393q0 -90 -19.5 -153.5t-60 -104t-102.5 -59.5t-146 -19v134z" />
<glyph unicode="~" horiz-adv-x="944" d="M145 672q0 56 14.5 94t40 61.5t61 34t77.5 10.5q36 0 70.5 -13t68 -29t66.5 -29t65 -13q41 0 60.5 22t19.5 64h107q0 -56 -14.5 -94t-40.5 -61.5t-62 -34t-78 -10.5q-31 0 -66.5 13t-71 28t-69.5 28t-63 13q-80 0 -80 -84h-105z" />
<glyph unicode="&#xa1;" horiz-adv-x="680" d="M240 891q0 42 29 71t71 29q20 0 37.5 -8t31 -21.5t21.5 -31.5t8 -39t-8 -38.5t-21.5 -31t-31 -21t-37.5 -7.5q-42 0 -71 28t-29 70zM268 565h144v-1143h-144v1143z" />
<glyph unicode="&#xa2;" horiz-adv-x="1110" d="M129 778q0 98 32.5 183.5t90 152.5t136.5 112t173 60v234h121v-226q82 -3 154 -27t135 -75v-158q-53 56 -135 90.5t-181 34.5q-81 0 -149.5 -27.5t-118.5 -78t-78 -120t-28 -153.5q0 -79 28.5 -149t79 -122t120.5 -82t153 -30q104 0 181 37t138 98v-161q-66 -54 -141 -80 t-160 -29v-233h-121v239q-91 16 -170 61t-136.5 112t-90.5 153t-33 184z" />
<glyph unicode="&#xa3;" horiz-adv-x="1169" d="M111 131q80 37 143.5 80t107 91.5t65.5 103t19 114.5h-264v111h238q-12 35 -30.5 66.5t-41 62.5t-46.5 63t-46 66q-37 57 -61.5 122t-24.5 152q0 81 33 154.5t91 129.5t137.5 89t172.5 33q95 0 172 -32t132.5 -88t86 -131t31.5 -161v-12h-149v12q-1 59 -21.5 110t-57 88 t-88 58t-114.5 21q-58 0 -108.5 -22.5t-88.5 -61t-60 -88.5t-22 -105q0 -35 7.5 -67.5t20 -63t30 -60.5t37.5 -61q24 -37 50 -71.5t48.5 -68.5t40 -67t24.5 -67h283v-111h-258q5 -49 -6 -96t-37.5 -90t-66 -82t-91.5 -72q83 0 134.5 -10t90.5 -22.5t77 -22.5t94 -10 q77 0 145 38.5t113 104.5l84 -100q-59 -93 -144.5 -138t-185.5 -45q-71 0 -120 11.5t-93 25.5t-92 25.5t-117 11.5q-43 0 -96.5 -13t-124.5 -44z" />
<glyph unicode="&#xa4;" horiz-adv-x="1294" d="M31 539v114h166q-2 28 -3 58t-1 61t1 60t3 57h-166v115h180q27 139 85.5 244.5t143 177t191.5 107.5t231 36q52 0 105.5 -9.5t103 -25t92.5 -37t74 -45.5v-174h-2q-31 32 -73.5 59t-91.5 46t-102.5 29.5t-105.5 10.5q-90 0 -169 -27t-142 -80t-108.5 -131t-69.5 -181h655 v-115h-674q-2 -28 -3 -56t-1 -59q0 -62 6 -121h672v-114h-651q23 -102 68.5 -180t108.5 -131t141.5 -80t168.5 -27q51 0 104.5 11t102.5 30.5t91.5 46t72.5 57.5h2v-172q-31 -24 -74 -45t-92.5 -37t-102.5 -25.5t-104 -9.5q-124 0 -231.5 36t-192.5 107t-143.5 176 t-85.5 243h-180z" />
<glyph unicode="&#xa5;" horiz-adv-x="1358" d="M76 1544h182l424 -743h4l418 743h180q-131 -223 -234 -399q-44 -75 -86 -147t-75 -128t-53 -90l-21 -35h363v-120h-418v-150h418v-119h-418v-356h-158v356h-416v119h416v150h-416v120h359z" />
<glyph unicode="&#xa7;" horiz-adv-x="1249" d="M229 -227l95 98q24 -33 56.5 -60t70 -46.5t78.5 -30t81 -10.5q112 0 173 53t61 149q0 54 -25.5 92t-67.5 68t-95.5 54.5t-109.5 51t-109.5 58t-95.5 75.5t-67.5 103t-25.5 141q0 128 70 220t198 131q-138 59 -197 136.5t-59 178.5q0 69 28 130t79 106t122 71.5t156 26.5 q56 0 108 -12.5t98 -35.5t84 -55.5t66 -72.5l-92 -97q-45 62 -113 100t-149 38q-109 0 -171 -52t-62 -151q0 -53 26.5 -90.5t69.5 -66.5t98 -52.5t112 -49.5t112 -57.5t98 -75.5t69.5 -104t26.5 -143q0 -129 -68 -221.5t-200 -130.5q71 -31 117 -66t73 -75t38 -85t11 -96 q0 -68 -25.5 -128.5t-74.5 -105.5t-120 -71.5t-163 -26.5q-58 0 -114 13t-106 37.5t-92 59t-73 77.5zM393 580q0 -51 18 -97t50.5 -81t78.5 -55.5t103 -20.5q54 0 98 20.5t75.5 55t49 80.5t17.5 98q0 50 -18.5 95.5t-52 80t-80 55t-101.5 20.5q-51 0 -95 -20t-75.5 -54 t-49.5 -80t-18 -97z" />
<glyph unicode="&#xa8;" horiz-adv-x="922" d="M162 1319q0 40 27 67t67 27q19 0 36.5 -7t30.5 -20t21 -30t8 -37q0 -19 -8 -36t-21 -30t-30.5 -20.5t-36.5 -7.5q-20 0 -37 7.5t-30 20.5t-20 30t-7 36zM569 1319q0 20 7.5 37t20.5 30t30.5 20t36.5 7t36.5 -7t30.5 -20t21 -30t8 -37q0 -19 -8 -36t-21 -30t-30.5 -20.5 t-36.5 -7.5t-36.5 7.5t-30.5 20.5t-20.5 30t-7.5 36z" />
<glyph unicode="&#xa9;" horiz-adv-x="1665" d="M33 772q0 109 28 211t79.5 190.5t124.5 161.5t162.5 125t193 80.5t217.5 28.5t218 -28.5t193.5 -80.5t163 -125t125.5 -161.5t80.5 -190t28.5 -211.5q0 -109 -28 -211t-80 -190.5t-125 -161.5t-163 -125t-193.5 -80.5t-217.5 -28.5q-116 0 -220.5 28.5t-194.5 80.5 t-162.5 125t-123.5 161.5t-78.5 190.5t-27.5 211zM117 770q0 -98 25.5 -189.5t72 -170.5t111.5 -144.5t145.5 -112.5t173 -72.5t193.5 -25.5q103 0 196.5 25t173.5 70.5t145.5 110.5t111.5 145t71 173t25 195q0 98 -25.5 189.5t-72.5 170.5t-112.5 144.5t-145.5 112.5 t-172.5 72.5t-192.5 25.5q-103 0 -196.5 -25t-174 -71.5t-145.5 -111.5t-111 -145t-71 -172.5t-25 -193.5zM393 774q0 97 36 182.5t99.5 149t150.5 100.5t189 37q84 0 157 -25.5t130 -76.5v-123h-2q-23 27 -54.5 50t-68.5 40.5t-77.5 27t-80.5 9.5q-83 0 -151.5 -28 t-117.5 -78t-76 -118t-27 -149q0 -78 28 -145t77.5 -117t117.5 -78.5t147 -28.5q38 0 78.5 9.5t78.5 26t71 39t55 48.5h2v-120q-63 -48 -133.5 -74.5t-151.5 -26.5q-104 0 -191.5 37t-151 101t-99 149t-35.5 182z" />
<glyph unicode="&#xaa;" horiz-adv-x="842" d="M72 1245q0 69 23 129.5t64 105.5t98.5 71t127.5 26q69 0 122 -26t87 -83h4v95h125v-639h-125v98h-4q-29 -57 -84.5 -85t-126.5 -28q-67 0 -124.5 25.5t-98.5 70.5t-64.5 106.5t-23.5 133.5zM193 1243q0 -43 14.5 -83t41.5 -70.5t65 -49t85 -18.5q48 0 86 18.5t64 49.5 t39.5 72.5t13.5 86.5q0 44 -14.5 83t-41.5 68.5t-65 46.5t-84 17q-48 0 -85.5 -17t-64 -47t-40.5 -70.5t-14 -86.5z" />
<glyph unicode="&#xab;" horiz-adv-x="893" d="M68 504l309 377l90 -72l-250 -305l250 -305l-90 -74zM367 504l309 377l88 -72l-250 -305l252 -305l-90 -74z" />
<glyph unicode="&#xac;" horiz-adv-x="635" d="M82 -88q53 0 87.5 10.5t55 37t29 70t8.5 109.5v359q0 59 8 102.5t25.5 75t45.5 52.5t69 36v6q-41 15 -69 36t-45.5 52.5t-25.5 75t-8 102.5v357q0 66 -8.5 109.5t-29 70t-55 37t-87.5 10.5v133q84 0 146 -18.5t102.5 -59t60 -104.5t19.5 -154v-391q0 -38 9.5 -71t28 -57 t45 -38t60.5 -14v-158q-34 0 -60.5 -14t-45 -38t-28 -57.5t-9.5 -72.5v-391q0 -90 -19.5 -154t-60 -104.5t-102.5 -59t-146 -18.5v133z" />
<glyph unicode="&#xad;" horiz-adv-x="889" d="M102 590v131h684v-131h-684z" />
<glyph unicode="&#xae;" horiz-adv-x="1665" d="M33 772q0 109 28 211t79.5 190.5t124.5 161.5t162.5 125t193 80.5t217.5 28.5t218 -28.5t193.5 -80.5t163 -125t125.5 -161.5t80.5 -190t28.5 -211.5q0 -109 -28 -211t-80 -190.5t-125 -161.5t-163 -125t-193.5 -80.5t-217.5 -28.5q-116 0 -220.5 28.5t-194.5 80.5 t-162.5 125t-123.5 161.5t-78.5 190.5t-27.5 211zM117 770q0 -98 25.5 -189.5t72 -170.5t111.5 -144.5t145.5 -112.5t173 -72.5t193.5 -25.5q103 0 196.5 25t173.5 70.5t145.5 110.5t111.5 145t71 173t25 195q0 98 -25.5 189.5t-72.5 170.5t-112.5 144.5t-145.5 112.5 t-172.5 72.5t-192.5 25.5q-103 0 -196.5 -25t-174 -71.5t-145.5 -111.5t-111 -145t-71 -172.5t-25 -193.5zM618 319v910h166q150 0 224.5 -65t74.5 -183q0 -103 -61.5 -167.5t-181.5 -74.5l297 -420h-119l-287 416h-8v-416h-105zM723 823h63q94 0 142.5 37.5t48.5 116.5 q0 86 -51.5 124t-167.5 38h-35v-316z" />
<glyph unicode="&#xaf;" horiz-adv-x="993" d="M154 1233v115h684v-115h-684z" />
<glyph unicode="&#xb0;" horiz-adv-x="819" d="M102 1262q0 63 24 119t66 97.5t98 66t120 24.5q63 0 119 -24.5t97.5 -66t66 -97.5t24.5 -119q0 -64 -24.5 -120t-66 -98t-97.5 -66t-119 -24q-64 0 -120 24t-98 66t-66 98t-24 120zM209 1262q0 -42 15.5 -79t42.5 -64t64 -42.5t79 -15.5t78.5 15.5t63.5 42.5t42.5 64 t15.5 79q0 41 -15.5 77.5t-42.5 63.5t-64 43t-80 16q-42 0 -78.5 -16t-63.5 -43t-42.5 -63.5t-14.5 -77.5z" />
<glyph unicode="&#xb1;" horiz-adv-x="1024" d="M102 705v135h820v-135h-820z" />
<glyph unicode="&#xb2;" horiz-adv-x="768" d="M49 621l381 415q60 66 91.5 121.5t31.5 114.5q0 36 -12 66.5t-35 52.5t-56 34.5t-75 12.5q-37 0 -68 -12t-53 -34.5t-34.5 -54.5t-12.5 -71v-11h-135v11q2 72 26 127.5t65.5 93t99 57t124.5 19.5t123 -22t96.5 -60t63 -90.5t22.5 -114.5q0 -77 -35 -141.5t-98 -133.5 q-2 -2 -20.5 -22t-45.5 -48.5t-58.5 -61t-58.5 -61t-46.5 -47.5t-22.5 -20h387v-123h-643z" />
<glyph unicode="&#xb3;" horiz-adv-x="731" d="M53 870v11h140v-11q2 -32 14 -59.5t33 -47.5t50 -31t64 -11q36 0 67.5 13.5t54 36.5t35.5 54.5t13 67.5q0 35 -13 65t-36 52t-55 34.5t-70 12.5h-26v92h28q35 1 63 13.5t48.5 33.5t31.5 49.5t11 61.5q0 29 -11 54.5t-31 45t-47.5 30.5t-60.5 11q-65 0 -102.5 -38 t-40.5 -97v-10h-129v10q2 57 22.5 103.5t57 79t88.5 50t117 17.5q59 0 109 -19t86 -52t56.5 -78.5t20.5 -98.5q0 -65 -33.5 -118.5t-93.5 -84.5v-2q35 -14 62.5 -38t46.5 -54t29 -63.5t10 -67.5q0 -61 -23 -114t-64 -91t-97 -60t-122 -22q-64 0 -119 21t-96 57.5t-64.5 85.5 t-23.5 106z" />
<glyph unicode="&#xb4;" horiz-adv-x="653" d="M127 1153l219 332h170l-256 -332h-133z" />
<glyph unicode="&#xb5;" horiz-adv-x="1102" d="M49 854v133h113v375q0 81 25.5 146t72.5 111.5t115 71.5t153 25t152 -25t114 -71t72 -111.5t25 -146.5v-375h178v-133h-178v-854h-150v854h-430v-854h-149v854h-113zM311 987h430v367q0 108 -55.5 168.5t-159.5 60.5q-100 0 -157.5 -58t-57.5 -173v-365z" />
<glyph unicode="&#xb6;" horiz-adv-x="1298" d="M199 1116q0 95 30 173.5t89 135t146 88t202 31.5h358v-1544h-121v1427h-186v-1427h-121v692q-97 9 -171.5 44t-124.5 90t-75.5 129t-25.5 161z" />
<glyph unicode="&#xb7;" horiz-adv-x="639" d="M223 772q0 40 28 68t68 28q41 0 69 -28t28 -68t-28 -68t-69 -28q-40 0 -68 28t-28 68z" />
<glyph unicode="&#xb8;" horiz-adv-x="594" d="M115 -362l200 301l115 -78l-231 -275z" />
<glyph unicode="&#xb9;" horiz-adv-x="475" d="M43 1417l20 127h263v-926h-142v799h-141z" />
<glyph unicode="&#xba;" horiz-adv-x="801" d="M63 1243q0 72 24.5 132.5t69.5 105t107.5 69.5t138.5 25q77 0 138.5 -25.5t105 -70t67 -105t23.5 -131.5t-24.5 -132t-69.5 -106t-107.5 -70.5t-138.5 -25.5q-75 0 -136.5 25.5t-105.5 70.5t-68 106t-24 132zM186 1243q0 -47 14.5 -87.5t42 -70.5t66.5 -47.5t88 -17.5 q52 0 92.5 17.5t68 47.5t42 70.5t14.5 87.5q0 45 -14.5 85t-41.5 70t-66 48t-89 18t-90 -18t-68.5 -48t-43.5 -70t-15 -85z" />
<glyph unicode="&#xbb;" horiz-adv-x="893" d="M127 199l252 305l-250 305l88 72l309 -377l-309 -379zM426 199l252 305l-250 305l88 72l309 -377l-309 -379z" />
<glyph unicode="&#xbc;" horiz-adv-x="1665" d="M43 1417l20 127h263v-926h-142v799h-141zM197 -29l993 1602h121l-996 -1602h-118zM924 229v56l465 663h104v-608h123v-111h-123v-229h-131v229h-438zM1077 336h291v242v170h-4l-287 -410v-2z" />
<glyph unicode="&#xbd;" horiz-adv-x="1843" d="M43 1417l20 127h263v-926h-142v799h-141zM197 -29l993 1602h121l-996 -1602h-118zM1124 2l381 416q60 66 91.5 121t31.5 114q0 73 -46.5 119.5t-131.5 46.5q-37 0 -67.5 -12t-53 -34.5t-35 -54.5t-12.5 -71v-10h-135v10q2 72 26 127.5t65.5 93t99 57t124.5 19.5t123 -22 t96.5 -60t63 -90.5t22.5 -114.5q0 -77 -35 -141.5t-98 -132.5q-2 -2 -20.5 -22t-45.5 -48.5t-58 -61t-58.5 -61t-47 -47.5t-22.5 -20h387v-123h-643z" />
<glyph unicode="&#xbe;" horiz-adv-x="1855" d="M53 870v11h140v-11q2 -32 14 -59.5t33 -47.5t50 -31t64 -11q36 0 67.5 13.5t54 36.5t35.5 54.5t13 67.5q0 35 -13 65t-36 52t-55 34.5t-70 12.5h-26v92h28q35 1 63 13.5t48.5 33.5t31.5 49.5t11 61.5q0 29 -11 54.5t-31 45t-47.5 30.5t-60.5 11q-65 0 -102.5 -38 t-40.5 -97v-10h-129v10q2 57 22.5 103.5t57 79t88.5 50t117 17.5q59 0 109 -19t86 -52t56.5 -78.5t20.5 -98.5q0 -65 -33.5 -118.5t-93.5 -84.5v-2q35 -14 62.5 -38t46.5 -54t29 -63.5t10 -67.5q0 -61 -23 -114t-64 -91t-97 -60t-122 -22q-64 0 -119 21t-96 57.5t-64.5 85.5 t-23.5 106zM385 -29l995 1602h121l-995 -1602h-121zM1112 229v56l467 663h104v-608h123v-111h-123v-229h-131v229h-440zM1268 336h291v242v170h-5l-286 -410v-2z" />
<glyph unicode="&#xbf;" horiz-adv-x="1004" d="M66 -131q0 103 34.5 187.5t96 146t147 97.5t186.5 40v229h148v-348h-57q-95 -1 -170 -25t-127 -69.5t-79.5 -110.5t-27.5 -147q0 -75 26 -136.5t71.5 -105.5t108.5 -68t138 -24q48 0 92.5 10t82.5 27t68 41t48 53l80 -86q-22 -42 -58.5 -75.5t-83.5 -57.5t-102.5 -36.5 t-116.5 -12.5q-111 0 -203.5 35t-159.5 97.5t-104.5 149t-37.5 189.5zM504 891q0 42 28 71t70 29t70 -29t28 -71t-28 -71t-70 -29t-70 29t-28 71z" />
<glyph unicode="&#xc0;" horiz-adv-x="1370" d="M6 0l643 1585h76l639 -1585h-172l-186 461h-652l-184 -461h-164zM379 2005h170l219 -332h-131zM408 596h546l-272 680h-2z" />
<glyph unicode="&#xc1;" horiz-adv-x="1370" d="M6 0l643 1585h76l639 -1585h-172l-186 461h-652l-184 -461h-164zM408 596h546l-272 680h-2zM612 1673l219 332h170l-256 -332h-133z" />
<glyph unicode="&#xc2;" horiz-adv-x="1370" d="M6 0l643 1585h76l639 -1585h-172l-186 461h-652l-184 -461h-164zM348 1657l270 338h142l270 -338h-147l-195 248l-196 -248h-144zM408 596h546l-272 680h-2z" />
<glyph unicode="&#xc3;" horiz-adv-x="1370" d="M6 0l643 1585h76l639 -1585h-172l-186 461h-652l-184 -461h-164zM356 1720q0 58 14 98t40 65t63 36.5t82 11.5q37 0 72 -13.5t69 -29.5t67 -29.5t66 -13.5q42 0 61 23t19 65h115q0 -57 -13 -97.5t-38.5 -65.5t-62 -36.5t-83.5 -11.5q-32 0 -68 13t-72 29t-71 29t-65 13 q-80 0 -80 -86h-115zM408 596h546l-272 680h-2z" />
<glyph unicode="&#xc4;" horiz-adv-x="1370" d="M6 0l643 1585h76l639 -1585h-172l-186 461h-652l-184 -461h-164zM387 1823q0 40 27 67t67 27q19 0 36.5 -7t31 -20t21.5 -30t8 -37q0 -19 -8 -36t-21.5 -30t-31 -20.5t-36.5 -7.5q-20 0 -37 7.5t-30 20.5t-20 30t-7 36zM408 596h546l-272 680h-2zM795 1823q0 20 7.5 37 t20.5 30t30 20t36 7t36.5 -7t30.5 -20t21 -30t8 -37q0 -19 -8 -36t-21 -30t-30.5 -20.5t-36.5 -7.5t-36 7.5t-30 20.5t-20.5 30t-7.5 36z" />
<glyph unicode="&#xc5;" horiz-adv-x="1370" d="M6 0l633 1559q-66 11 -105.5 61t-39.5 121q0 41 14 76.5t39.5 61t61 40t79.5 14.5q45 0 80.5 -15t60.5 -40.5t38.5 -60.5t13.5 -76q0 -71 -40 -120.5t-108 -61.5l631 -1559h-172l-186 461h-652l-184 -461h-164zM408 596h546l-272 680h-2zM586 1741q0 -47 26 -77t74 -30 q50 0 77.5 30t27.5 77q0 45 -27.5 75.5t-75.5 30.5q-46 0 -74 -30.5t-28 -75.5z" />
<glyph unicode="&#xc6;" horiz-adv-x="2071" d="M-10 0l1177 1544h775v-141h-609v-518h590v-137h-590v-607h609v-141h-766v461h-648l-354 -461h-184zM635 596h541v713h-2z" />
<glyph unicode="&#xc7;" horiz-adv-x="1473" d="M72 772q0 109 27.5 211t78.5 190.5t123.5 161.5t162.5 125t194.5 80.5t220.5 28.5q142 0 264 -44.5t221 -129.5v-191h-4q-42 48 -97 88t-118 68.5t-130.5 44.5t-135.5 16q-138 0 -256.5 -49.5t-205 -136.5t-135.5 -206t-49 -257q0 -89 23 -171.5t65 -155t101.5 -131.5 t131.5 -101.5t155.5 -66t173.5 -23.5q62 0 129 15t131 42t120 65.5t97 86.5h4v-189q-108 -78 -227 -123t-256 -45q-118 0 -224 28.5t-196 80.5t-162 125t-122.5 161.5t-77.5 190.5t-27 211zM659 -393l201 301l115 -78l-232 -274z" />
<glyph unicode="&#xc8;" horiz-adv-x="1055" d="M160 0v1544h764v-141h-607v-518h590v-137h-590v-607h607v-141h-764zM289 1982h170l219 -331h-131z" />
<glyph unicode="&#xc9;" horiz-adv-x="1055" d="M160 0v1544h764v-141h-607v-518h590v-137h-590v-607h607v-141h-764zM414 1651l219 331h170l-256 -331h-133z" />
<glyph unicode="&#xca;" horiz-adv-x="1055" d="M160 0v1544h764v-141h-607v-518h590v-137h-590v-607h607v-141h-764zM199 1651l270 338h141l271 -338h-148l-194 247l-197 -247h-143z" />
<glyph unicode="&#xcb;" horiz-adv-x="1055" d="M160 0v1544h764v-141h-607v-518h590v-137h-590v-607h607v-141h-764zM240 1817q0 40 27 67t67 27q19 0 36.5 -7t30.5 -20t21 -30t8 -37q0 -19 -8 -36.5t-21 -30.5t-30.5 -20.5t-36.5 -7.5q-20 0 -37 7.5t-30 20.5t-20 30.5t-7 36.5zM647 1817q0 20 7.5 37t20.5 30t30 20 t36 7q20 0 37.5 -7t30.5 -20t21 -30t8 -37q0 -19 -8 -36.5t-21 -30.5t-30.5 -20.5t-37.5 -7.5q-19 0 -36 7.5t-30 20.5t-20.5 30.5t-7.5 36.5z" />
<glyph unicode="&#xcc;" horiz-adv-x="475" d="M-78 1982h170l219 -331h-131zM160 0v1544h157v-1544h-157z" />
<glyph unicode="&#xcd;" horiz-adv-x="475" d="M160 0v1544h157v-1544h-157zM164 1651l219 331h170l-256 -331h-133z" />
<glyph unicode="&#xce;" horiz-adv-x="475" d="M-100 1651l270 338h141l271 -338h-148l-194 247l-197 -247h-143zM160 0v1544h157v-1544h-157z" />
<glyph unicode="&#xcf;" horiz-adv-x="475" d="M-59 1817q0 40 27 67t67 27q19 0 36.5 -7t30.5 -20t21 -30t8 -37q0 -19 -8 -36.5t-21 -30.5t-30.5 -20.5t-36.5 -7.5q-20 0 -37 7.5t-30 20.5t-20 30.5t-7 36.5zM160 0v1544h157v-1544h-157zM348 1817q0 20 7.5 37t20.5 30t30 20t36 7q20 0 37.5 -7t30.5 -20t21 -30 t8 -37q0 -19 -8 -36.5t-21 -30.5t-30.5 -20.5t-37.5 -7.5q-19 0 -36 7.5t-30 20.5t-20.5 30.5t-7.5 36.5z" />
<glyph unicode="&#xd0;" horiz-adv-x="1378" d="M-8 705v137h168v702h366q114 0 216 -27t189 -76.5t157 -119t119 -155.5t75.5 -185.5t26.5 -208.5q0 -106 -25.5 -205t-74 -184.5t-117.5 -156t-156 -121t-190.5 -78t-219.5 -27.5h-366v705h-168zM317 141h181q161 0 282 51t202 137t122 201t41 242q0 128 -40.5 242.5 t-121.5 200.5t-202.5 137t-282.5 51h-181v-561h330v-137h-330v-564z" />
<glyph unicode="&#xd1;" horiz-adv-x="1669" d="M160 0v1561h76l1116 -1268h2v1251h157v-1583h-77l-1115 1272h-2v-1233h-157zM485 1714q0 58 14 98t40 65t63 36.5t82 11.5q37 0 72 -13.5t69 -29.5t67 -29.5t66 -13.5q42 0 61 23t19 65h115q0 -57 -13 -97.5t-38.5 -65.5t-62 -36.5t-83.5 -11.5q-32 0 -68 13t-72 29 t-71 29t-65 13q-40 0 -60 -22t-20 -64h-115z" />
<glyph unicode="&#xd2;" horiz-adv-x="1755" d="M70 772q0 109 28 211t79.5 190.5t124.5 161.5t162.5 125t194 80.5t218.5 28.5t217.5 -28.5t193 -80.5t162.5 -125t125 -161.5t80 -190t28 -211.5q0 -109 -28 -211t-79.5 -190.5t-124 -161.5t-162 -125t-193 -80.5t-217.5 -28.5q-116 0 -221 28.5t-194.5 80.5t-162.5 125 t-124 161.5t-79 190.5t-28 211zM231 772q0 -89 23 -172t65 -155.5t101 -132.5t131 -103t155 -66.5t173 -23.5q137 0 255 49.5t204.5 136.5t136 206.5t49.5 260.5q0 134 -51 252.5t-139 207.5t-205.5 141t-251.5 52q-138 0 -256.5 -50t-205 -138t-135.5 -207.5t-49 -257.5z M547 2005h170l219 -332h-131z" />
<glyph unicode="&#xd3;" horiz-adv-x="1755" d="M70 772q0 109 28 211t79.5 190.5t124.5 161.5t162.5 125t194 80.5t218.5 28.5t217.5 -28.5t193 -80.5t162.5 -125t125 -161.5t80 -190t28 -211.5q0 -109 -28 -211t-79.5 -190.5t-124 -161.5t-162 -125t-193 -80.5t-217.5 -28.5q-116 0 -221 28.5t-194.5 80.5t-162.5 125 t-124 161.5t-79 190.5t-28 211zM231 772q0 -89 23 -172t65 -155.5t101 -132.5t131 -103t155 -66.5t173 -23.5q137 0 255 49.5t204.5 136.5t136 206.5t49.5 260.5q0 134 -51 252.5t-139 207.5t-205.5 141t-251.5 52q-138 0 -256.5 -50t-205 -138t-135.5 -207.5t-49 -257.5z M788 1673l220 332h170l-256 -332h-134z" />
<glyph unicode="&#xd4;" horiz-adv-x="1755" d="M68 772q0 109 28 211t79.5 190.5t124.5 161.5t162.5 125t193.5 80.5t218 28.5t218 -28.5t193.5 -80.5t162.5 -125t125 -161.5t80 -190t28 -211.5q0 -109 -28 -211t-79.5 -190.5t-124 -161.5t-162 -125t-193 -80.5t-217.5 -28.5q-116 0 -221 28.5t-194.5 80.5t-162.5 125 t-124 161.5t-79 190.5t-28 211zM229 772q0 -89 23 -172t65 -155.5t101 -132.5t131 -103t155 -66.5t173 -23.5q137 0 255 49.5t204.5 136.5t136 206.5t49.5 260.5q0 89 -23 172t-65.5 155.5t-101.5 132.5t-131 103t-155 66.5t-172 23.5q-138 0 -256 -50t-204.5 -138 t-135.5 -207.5t-49 -257.5zM535 1657l270 338h141l271 -338h-148l-195 248l-196 -248h-143z" />
<glyph unicode="&#xd5;" horiz-adv-x="1755" d="M70 772q0 109 28 211t79.5 190.5t124.5 161.5t162.5 125t194 80.5t218.5 28.5t217.5 -28.5t193 -80.5t162.5 -125t125 -161.5t80 -190t28 -211.5q0 -109 -28 -211t-79.5 -190.5t-124 -161.5t-162 -125t-193 -80.5t-217.5 -28.5q-116 0 -221 28.5t-194.5 80.5t-162.5 125 t-124 161.5t-79 190.5t-28 211zM231 772q0 -89 23 -172t65 -155.5t101 -132.5t131 -103t155 -66.5t173 -23.5q137 0 255 49.5t204.5 136.5t136 206.5t49.5 260.5q0 134 -51 252.5t-139 207.5t-205.5 141t-251.5 52q-138 0 -256.5 -50t-205 -138t-135.5 -207.5t-49 -257.5z M518 1720q0 58 14 98t40 65t63 36.5t82 11.5q37 0 72 -13.5t69 -29.5t67 -29.5t66 -13.5q42 0 61 23t19 65h115q0 -57 -13 -97.5t-38.5 -65.5t-62 -36.5t-83.5 -11.5q-32 0 -68 13t-72 29t-71 29t-65 13q-80 0 -80 -86h-115z" />
<glyph unicode="&#xd6;" horiz-adv-x="1755" d="M70 772q0 109 28 211t79.5 190.5t124.5 161.5t162.5 125t194 80.5t218.5 28.5t217.5 -28.5t193 -80.5t162.5 -125t125 -161.5t80 -190t28 -211.5q0 -109 -28 -211t-79.5 -190.5t-124 -161.5t-162 -125t-193 -80.5t-217.5 -28.5q-116 0 -221 28.5t-194.5 80.5t-162.5 125 t-124 161.5t-79 190.5t-28 211zM231 772q0 -89 23 -172t65 -155.5t101 -132.5t131 -103t155 -66.5t173 -23.5q137 0 255 49.5t204.5 136.5t136 206.5t49.5 260.5q0 134 -51 252.5t-139 207.5t-205.5 141t-251.5 52q-138 0 -256.5 -50t-205 -138t-135.5 -207.5t-49 -257.5z M573 1823q0 40 27 67t68 27q19 0 36.5 -7t30.5 -20t21 -30t8 -37q0 -19 -8 -36t-21 -30t-30.5 -20.5t-36.5 -7.5q-20 0 -37.5 7.5t-30 20.5t-20 30t-7.5 36zM981 1823q0 20 7.5 37t20.5 30t30 20t36 7t36.5 -7t30.5 -20t21 -30t8 -37q0 -19 -8 -36t-21 -30t-30.5 -20.5 t-36.5 -7.5t-36 7.5t-30 20.5t-20.5 30t-7.5 36z" />
<glyph unicode="&#xd7;" horiz-adv-x="1272" d="M221 475l305 305l-305 305l98 99l304 -305l305 305l96 -97l-305 -305l307 -307l-98 -96l-305 305l-306 -303z" />
<glyph unicode="&#xd8;" horiz-adv-x="1755" d="M70 772q0 109 28 211t79.5 190.5t124.5 161.5t162.5 125t194 80.5t218.5 28.5q148 0 277 -47.5t235 -132.5l182 188l84 -80l-180 -186q97 -107 152.5 -245t55.5 -294q0 -109 -28 -211t-79.5 -190.5t-124 -161.5t-162 -125t-193 -80.5t-217.5 -28.5q-155 0 -288 50.5 t-237 138.5q-30 -31 -62.5 -64t-59.5 -61q-32 -33 -62 -64l-78 78l180 187q-96 106 -149 241.5t-53 290.5zM231 772q0 -119 40.5 -224t111.5 -192l901 922q-83 68 -187.5 107.5t-219.5 39.5q-138 0 -256.5 -50t-205 -138t-135.5 -207.5t-49 -257.5zM461 274 q83 -72 190 -113.5t228 -41.5q137 0 255 49.5t204.5 136.5t136 206.5t49.5 260.5q0 122 -43 229.5t-117 192.5q-252 -257 -451 -459q-56 -57 -111.5 -113.5t-106 -108t-93.5 -95t-74 -75.5t-49 -51z" />
<glyph unicode="&#xd9;" horiz-adv-x="1399" d="M145 555v989h160v-956q0 -243 100.5 -357t305.5 -114q101 0 173.5 28t119.5 86t69.5 147t22.5 210v956h157v-989q0 -140 -35.5 -248.5t-105.5 -182.5t-173.5 -112.5t-238.5 -38.5q-133 0 -236.5 39.5t-174.5 114.5t-107.5 183t-36.5 245zM424 1982h170l219 -331h-131z " />
<glyph unicode="&#xda;" horiz-adv-x="1399" d="M145 555v989h160v-956q0 -243 100.5 -357t305.5 -114q101 0 173.5 28t119.5 86t69.5 147t22.5 210v956h157v-989q0 -140 -35.5 -248.5t-105.5 -182.5t-173.5 -112.5t-238.5 -38.5q-133 0 -236.5 39.5t-174.5 114.5t-107.5 183t-36.5 245zM580 1651l219 331h170l-256 -331 h-133z" />
<glyph unicode="&#xdb;" horiz-adv-x="1399" d="M145 555v989h160v-956q0 -243 100.5 -357t305.5 -114q101 0 173.5 28t119.5 86t69.5 147t22.5 210v956h157v-989q0 -140 -35.5 -248.5t-105.5 -182.5t-173.5 -112.5t-238.5 -38.5q-133 0 -236.5 39.5t-174.5 114.5t-107.5 183t-36.5 245zM352 1651l271 338h141l270 -338 h-147l-195 247l-196 -247h-144z" />
<glyph unicode="&#xdc;" horiz-adv-x="1399" d="M145 555v989h160v-956q0 -243 100.5 -357t305.5 -114q101 0 173.5 28t119.5 86t69.5 147t22.5 210v956h157v-989q0 -140 -35.5 -248.5t-105.5 -182.5t-173.5 -112.5t-238.5 -38.5q-133 0 -236.5 39.5t-174.5 114.5t-107.5 183t-36.5 245zM408 1817q0 40 27 67t67 27 q19 0 36.5 -7t30.5 -20t21 -30t8 -37q0 -19 -8 -36.5t-21 -30.5t-30.5 -20.5t-36.5 -7.5q-20 0 -37 7.5t-30 20.5t-20 30.5t-7 36.5zM815 1817q0 20 7.5 37t20.5 30t30 20t36 7q20 0 37.5 -7t30.5 -20t21 -30t8 -37q0 -19 -8 -36.5t-21 -30.5t-30.5 -20.5t-37.5 -7.5 q-19 0 -36 7.5t-30 20.5t-20.5 30.5t-7.5 36.5z" />
<glyph unicode="&#xdd;" horiz-adv-x="1208" d="M0 1544h182l424 -743h4l418 743h180l-524 -895v-649h-160v649zM504 1651l219 331h170l-256 -331h-133z" />
<glyph unicode="&#xde;" horiz-adv-x="1044" d="M160 0v1544h157v-344h201q114 0 201.5 -31.5t146.5 -88t89 -135t30 -173.5q0 -94 -30 -173t-88.5 -135.5t-145.5 -88t-201 -31.5h-203v-344h-157zM317 481h175q88 0 151.5 20.5t104 58.5t60 91.5t19.5 120.5t-19.5 121t-60 92t-104 58t-151.5 18h-175v-580z" />
<glyph unicode="&#xdf;" horiz-adv-x="1049" d="M139 0v1309q0 98 26 173.5t75.5 127.5t121 79t162.5 27q84 0 152 -26.5t116.5 -75t74.5 -116.5t26 -152q0 -53 -8.5 -98.5t-32 -91t-66.5 -96t-112 -114.5q-31 -28 -51.5 -50.5t-31.5 -42t-15.5 -38t-4.5 -39.5q0 -46 30.5 -78.5t76.5 -60.5t99 -56t99 -66t76.5 -91 t30.5 -131q0 -70 -24.5 -128t-69 -100t-106 -65t-136.5 -23q-62 0 -119 17.5t-102 46.5l51 113q38 -26 82.5 -42t87.5 -16q47 0 83 14.5t60.5 39.5t37 58.5t12.5 70.5q0 57 -30.5 96t-76.5 69.5t-99 58.5t-99 63.5t-76.5 84.5t-30.5 121q0 30 6 56.5t20 53t36.5 54.5 t56.5 61q66 62 105.5 109t61 86.5t28 75.5t6.5 78q0 111 -60.5 174t-167.5 63q-114 0 -173.5 -78t-59.5 -231v-1274h-148z" />
<glyph unicode="&#xe0;" horiz-adv-x="1196" d="M74 498q0 107 35 200.5t98.5 162.5t153 109t198.5 40q55 0 107.5 -12.5t100 -36.5t86.5 -58.5t67 -79.5h4v164h149v-987h-149v172h-4q-23 -46 -62.5 -82.5t-88 -61.5t-102.5 -38t-108 -13q-108 0 -197 39.5t-153 109.5t-99.5 165.5t-35.5 206.5zM217 496q0 -78 25.5 -149 t72.5 -125.5t114 -87t149 -32.5q85 0 150.5 33t110.5 89t68 129t23 153q0 78 -25.5 146.5t-72.5 120.5t-113.5 82t-147.5 30q-83 0 -148.5 -30.5t-111.5 -83t-70 -123.5t-24 -152zM297 1485h170l219 -332h-131z" />
<glyph unicode="&#xe1;" horiz-adv-x="1196" d="M74 498q0 107 35 200.5t98.5 162.5t153 109t198.5 40q55 0 107.5 -12.5t100 -36.5t86.5 -58.5t67 -79.5h4v164h149v-987h-149v172h-4q-23 -46 -62.5 -82.5t-88 -61.5t-102.5 -38t-108 -13q-108 0 -197 39.5t-153 109.5t-99.5 165.5t-35.5 206.5zM217 496q0 -78 25.5 -149 t72.5 -125.5t114 -87t149 -32.5q85 0 150.5 33t110.5 89t68 129t23 153q0 78 -25.5 146.5t-72.5 120.5t-113.5 82t-147.5 30q-83 0 -148.5 -30.5t-111.5 -83t-70 -123.5t-24 -152zM496 1153l219 332h170l-256 -332h-133z" />
<glyph unicode="&#xe2;" horiz-adv-x="1196" d="M74 498q0 107 35 200.5t98.5 162.5t153 109t198.5 40q55 0 107.5 -12.5t100 -36.5t86.5 -58.5t67 -79.5h4v164h149v-987h-149v172h-4q-23 -46 -62.5 -82.5t-88 -61.5t-102.5 -38t-108 -13q-108 0 -197 39.5t-153 109.5t-99.5 165.5t-35.5 206.5zM217 496q0 -78 25.5 -149 t72.5 -125.5t114 -87t149 -32.5q85 0 150.5 33t110.5 89t68 129t23 153q0 78 -25.5 146.5t-72.5 120.5t-113.5 82t-147.5 30q-83 0 -148.5 -30.5t-111.5 -83t-70 -123.5t-24 -152zM260 1153l270 338h142l270 -338h-147l-195 248l-197 -248h-143z" />
<glyph unicode="&#xe3;" horiz-adv-x="1196" d="M74 498q0 107 35 200.5t98.5 162.5t153 109t198.5 40q55 0 107.5 -12.5t100 -36.5t86.5 -58.5t67 -79.5h4v164h149v-987h-149v172h-4q-23 -46 -62.5 -82.5t-88 -61.5t-102.5 -38t-108 -13q-108 0 -197 39.5t-153 109.5t-99.5 165.5t-35.5 206.5zM217 496q0 -78 25.5 -149 t72.5 -125.5t114 -87t149 -32.5q85 0 150.5 33t110.5 89t68 129t23 153q0 78 -25.5 146.5t-72.5 120.5t-113.5 82t-147.5 30q-83 0 -148.5 -30.5t-111.5 -83t-70 -123.5t-24 -152zM258 1217q0 57 14 97t40 65t63 36.5t82 11.5q37 0 72 -13.5t69 -29.5t67 -29.5t66 -13.5 q42 0 61 23.5t19 65.5h115q0 -58 -13 -98t-38.5 -65t-62 -36.5t-83.5 -11.5q-32 0 -68 13t-72.5 29t-71 29t-64.5 13q-41 0 -60.5 -22t-19.5 -64h-115z" />
<glyph unicode="&#xe4;" horiz-adv-x="1196" d="M74 498q0 107 35 200.5t98.5 162.5t153 109t198.5 40q55 0 107.5 -12.5t100 -36.5t86.5 -58.5t67 -79.5h4v164h149v-987h-149v172h-4q-23 -46 -62.5 -82.5t-88 -61.5t-102.5 -38t-108 -13q-108 0 -197 39.5t-153 109.5t-99.5 165.5t-35.5 206.5zM217 496q0 -78 25.5 -149 t72.5 -125.5t114 -87t149 -32.5q85 0 150.5 33t110.5 89t68 129t23 153q0 78 -25.5 146.5t-72.5 120.5t-113.5 82t-147.5 30q-83 0 -148.5 -30.5t-111.5 -83t-70 -123.5t-24 -152zM305 1319q0 40 27 67t67 27q20 0 37.5 -7t30.5 -20t21 -30t8 -37q0 -19 -8 -36t-21 -30 t-30.5 -20.5t-37.5 -7.5t-37 7.5t-30 20.5t-20 30t-7 36zM713 1319q0 20 7.5 37t20.5 30t30 20t36 7t36.5 -7t30.5 -20t21 -30t8 -37q0 -19 -8 -36t-21 -30t-30.5 -20.5t-36.5 -7.5t-36 7.5t-30 20.5t-20.5 30t-7.5 36z" />
<glyph unicode="&#xe5;" horiz-adv-x="1196" d="M74 498q0 107 35 200.5t98.5 162.5t153 109t198.5 40q55 0 107.5 -12.5t100 -36.5t86.5 -58.5t67 -79.5h4v164h149v-987h-149v172h-4q-23 -46 -62.5 -82.5t-88 -61.5t-102.5 -38t-108 -13q-108 0 -197 39.5t-153 109.5t-99.5 165.5t-35.5 206.5zM217 496q0 -78 25.5 -149 t72.5 -125.5t114 -87t149 -32.5q85 0 150.5 33t110.5 89t68 129t23 153q0 78 -25.5 146.5t-72.5 120.5t-113.5 82t-147.5 30q-83 0 -148.5 -30.5t-111.5 -83t-70 -123.5t-24 -152zM397 1313q0 42 14 77.5t39.5 61.5t61.5 40.5t80 14.5q45 0 80.5 -15t60 -41t38 -61.5 t13.5 -76.5t-14 -76t-39.5 -61t-61 -41t-79.5 -15q-45 0 -80.5 15t-60.5 41t-38.5 61t-13.5 76zM487 1313q0 -45 26.5 -75t76.5 -30q49 0 75.5 30t26.5 75q0 46 -26 76t-74 30t-76.5 -30t-28.5 -76z" />
<glyph unicode="&#xe6;" horiz-adv-x="1835" d="M70 297q0 82 36 144.5t95 104.5t133.5 63.5t150.5 21.5q87 0 165.5 -29t129.5 -80l4 4q0 4 -0.5 23t-2 40.5t-3.5 39.5t-4 20q-5 125 -79 180.5t-208 55.5q-84 0 -158.5 -21.5t-150.5 -58.5v133q39 18 76 31.5t75 22.5t79.5 13.5t89.5 4.5q65 0 123.5 -12.5t107.5 -38 t87 -65.5t63 -95q0 1 1 1t1 -1q63 97 166 154t237 57q117 0 208.5 -39t154.5 -110t95.5 -170t31.5 -220h-838q2 -86 31 -155.5t78.5 -118t116 -75t141.5 -26.5q111 0 192 54t135 147l125 -33q-31 -69 -78.5 -122.5t-108 -90t-131 -55.5t-147.5 -19q-143 0 -250.5 62 t-167.5 168h-6q-23 -57 -64.5 -100t-95 -72t-114 -43.5t-121.5 -14.5q-47 0 -95 9t-92.5 26.5t-83.5 44.5t-68 62.5t-45.5 80t-16.5 97.5zM215 305q0 -56 25.5 -95.5t66 -65t90.5 -37t99 -11.5q44 0 93 14.5t89.5 42t67 66.5t26.5 88q0 53 -22.5 93t-60 66.5t-86 40 t-101.5 13.5q-55 0 -107 -13t-92 -39.5t-64 -67t-24 -95.5zM940 575h686q-11 68 -36 126t-66 101t-100.5 67t-139.5 24q-72 0 -132 -24.5t-105 -67.5t-72.5 -101t-34.5 -125z" />
<glyph unicode="&#xe7;" horiz-adv-x="993" d="M63 496q0 111 40 205.5t110.5 163t166.5 107t208 38.5q91 0 169 -23.5t146 -79.5v-153q-26 27 -60 51t-74 42t-85.5 28t-93.5 10q-81 0 -151 -29.5t-122 -81t-82 -122.5t-30 -154t29.5 -155t82 -125t123.5 -83.5t154 -30.5q103 0 181 37t138 99v-154q-71 -57 -152 -83 t-177 -26q-108 0 -202.5 38t-165.5 106t-112 164t-41 211zM385 -381l201 301l114 -78l-231 -274z" />
<glyph unicode="&#xe8;" horiz-adv-x="1108" d="M63 494q0 107 36 201t101 164t156 110.5t201 40.5q117 0 208.5 -39t154.5 -110t95.5 -170t31.5 -220h-838q2 -86 31 -155.5t78.5 -118t115.5 -75t141 -26.5q111 0 192.5 54.5t135.5 146.5l125 -33q-31 -69 -78.5 -122.5t-108 -90t-131 -55.5t-147.5 -19q-114 0 -206 40 t-157.5 109.5t-101 164t-35.5 203.5zM213 575h686q-11 68 -36 126t-66 101t-100.5 67t-139.5 24q-72 0 -132 -24.5t-105 -67.5t-72.5 -101t-34.5 -125zM256 1485h170l219 -332h-131z" />
<glyph unicode="&#xe9;" horiz-adv-x="1108" d="M63 494q0 107 36 201t101 164t156 110.5t201 40.5q117 0 208.5 -39t154.5 -110t95.5 -170t31.5 -220h-838q2 -86 31 -155.5t78.5 -118t115.5 -75t141 -26.5q111 0 192.5 54.5t135.5 146.5l125 -33q-31 -69 -78.5 -122.5t-108 -90t-131 -55.5t-147.5 -19q-114 0 -206 40 t-157.5 109.5t-101 164t-35.5 203.5zM213 575h686q-11 68 -36 126t-66 101t-100.5 67t-139.5 24q-72 0 -132 -24.5t-105 -67.5t-72.5 -101t-34.5 -125zM469 1153l219 332h170l-256 -332h-133z" />
<glyph unicode="&#xea;" horiz-adv-x="1108" d="M63 494q0 107 36 201t101 164t156 110.5t201 40.5q117 0 208.5 -39t154.5 -110t95.5 -170t31.5 -220h-838q2 -86 31 -155.5t78.5 -118t115.5 -75t141 -26.5q111 0 192.5 54.5t135.5 146.5l125 -33q-31 -69 -78.5 -122.5t-108 -90t-131 -55.5t-147.5 -19q-114 0 -206 40 t-157.5 109.5t-101 164t-35.5 203.5zM213 575h686q-11 68 -36 126t-66 101t-100.5 67t-139.5 24q-72 0 -132 -24.5t-105 -67.5t-72.5 -101t-34.5 -125zM233 1153l271 338h141l270 -338h-147l-195 248l-196 -248h-144z" />
<glyph unicode="&#xeb;" horiz-adv-x="1108" d="M63 494q0 107 36 201t101 164t156 110.5t201 40.5q117 0 208.5 -39t154.5 -110t95.5 -170t31.5 -220h-838q2 -86 31 -155.5t78.5 -118t115.5 -75t141 -26.5q111 0 192.5 54.5t135.5 146.5l125 -33q-31 -69 -78.5 -122.5t-108 -90t-131 -55.5t-147.5 -19q-114 0 -206 40 t-157.5 109.5t-101 164t-35.5 203.5zM213 575h686q-11 68 -36 126t-66 101t-100.5 67t-139.5 24q-72 0 -132 -24.5t-105 -67.5t-72.5 -101t-34.5 -125zM276 1317q0 40 27 67t68 27q19 0 36.5 -7t30.5 -20t21 -30t8 -37q0 -19 -8 -36t-21 -30t-30.5 -20.5t-36.5 -7.5 q-20 0 -37.5 7.5t-30 20.5t-20 30t-7.5 36zM684 1317q0 20 7.5 37t20.5 30t30 20t36 7t36.5 -7t30.5 -20t21 -30t8 -37q0 -19 -8 -36t-21 -30t-30.5 -20.5t-36.5 -7.5t-36 7.5t-30 20.5t-20.5 30t-7.5 36z" />
<glyph unicode="&#xec;" horiz-adv-x="467" d="M-84 1485h170l219 -332h-131zM160 0v987h149v-987h-149z" />
<glyph unicode="&#xed;" horiz-adv-x="467" d="M143 1153l219 332h170l-256 -332h-133zM160 0v987h149v-987h-149z" />
<glyph unicode="&#xee;" horiz-adv-x="467" d="M-106 1153l270 338h141l270 -338h-147l-195 248l-196 -248h-143zM160 0v987h149v-987h-149z" />
<glyph unicode="&#xef;" horiz-adv-x="467" d="M-59 1319q0 40 27 67t67 27q19 0 36.5 -7t30.5 -20t21 -30t8 -37q0 -19 -8 -36t-21 -30t-30.5 -20.5t-36.5 -7.5q-20 0 -37 7.5t-30 20.5t-20 30t-7 36zM160 0v987h149v-987h-149zM348 1319q0 20 7.5 37t20.5 30t30 20t36 7q20 0 37.5 -7t30.5 -20t21 -30t8 -37 q0 -19 -8 -36t-21 -30t-30.5 -20.5t-37.5 -7.5q-19 0 -36 7.5t-30 20.5t-20.5 30t-7.5 36z" />
<glyph unicode="&#xf0;" d="M63 487q0 108 38 201.5t106.5 162.5t163 108.5t207.5 39.5q51 0 101 -11t94.5 -31.5t82.5 -48.5t66 -62l2 2q-51 157 -124.5 284.5t-176.5 239.5l-11 -6q-10 -5 -27 -14.5t-39.5 -21.5t-45.5 -25q-55 -30 -123 -68l-39 80l215 121q-43 38 -91.5 77t-101.5 76l76 101 q68 -42 129 -88.5t115 -100.5l240 135l41 -79l-108 -60q-20 -11 -39.5 -22t-34.5 -19.5t-25 -13.5l-9 -6q84 -94 150.5 -199t112 -220.5t70 -241.5t24.5 -261q0 -115 -37 -213.5t-105.5 -171t-165 -113.5t-216.5 -41q-117 0 -212 39t-162.5 108t-104 162t-36.5 201zM205 487 q0 -76 25 -146.5t73 -123.5t117.5 -85t157.5 -32q90 0 160.5 31t119 83.5t74.5 123t26 149.5q0 77 -25 147.5t-73 124.5t-117 86t-157 32q-87 0 -157.5 -31.5t-120 -85t-76.5 -124.5t-27 -149z" />
<glyph unicode="&#xf1;" horiz-adv-x="1051" d="M139 0v987h150v-141h4q46 78 122.5 121t182.5 43q156 0 241 -95t85 -278v-637h-150v604q0 63 -10 115t-34.5 89.5t-67.5 58t-109 20.5q-64 0 -113 -27t-82.5 -75t-51 -113t-17.5 -140v-532h-150zM201 1217q0 57 14 97t40 65t62.5 36.5t81.5 11.5q37 0 72.5 -13.5 t69.5 -29.5t67 -29.5t66 -13.5q42 0 61 23.5t19 65.5h114q0 -58 -13 -98t-38 -65t-61.5 -36.5t-83.5 -11.5q-32 0 -68 13t-72.5 29t-71.5 29t-65 13q-40 0 -60 -22t-20 -64h-114z" />
<glyph unicode="&#xf2;" d="M63 494q0 110 38 204t106.5 163.5t165 109t213.5 39.5q118 0 213.5 -40t162.5 -110t103.5 -164t36.5 -202q0 -109 -38 -203.5t-107 -164t-165.5 -109.5t-213.5 -40t-212 40t-162.5 109.5t-104 164t-36.5 203.5zM205 494q0 -78 25 -149t73 -125t117.5 -86t157.5 -32 q90 0 160.5 31.5t119 85.5t74.5 125t26 150q0 77 -25 147.5t-73 124.5t-117 86.5t-157 32.5q-87 0 -157.5 -32t-120 -85.5t-76.5 -124.5t-27 -149zM246 1485h170l219 -332h-131z" />
<glyph unicode="&#xf3;" d="M63 494q0 110 38 204t106.5 163.5t165 109t213.5 39.5q118 0 213.5 -40t162.5 -110t103.5 -164t36.5 -202q0 -109 -38 -203.5t-107 -164t-165.5 -109.5t-213.5 -40t-212 40t-162.5 109.5t-104 164t-36.5 203.5zM205 494q0 -78 25 -149t73 -125t117.5 -86t157.5 -32 q90 0 160.5 31.5t119 85.5t74.5 125t26 150q0 77 -25 147.5t-73 124.5t-117 86.5t-157 32.5q-87 0 -157.5 -32t-120 -85.5t-76.5 -124.5t-27 -149zM502 1153l219 332h170l-256 -332h-133z" />
<glyph unicode="&#xf4;" d="M63 494q0 110 38 204t106.5 163.5t165 109t213.5 39.5q118 0 213.5 -40t162.5 -110t103.5 -164t36.5 -202q0 -109 -38 -203.5t-107 -164t-165.5 -109.5t-213.5 -40t-212 40t-162.5 109.5t-104 164t-36.5 203.5zM205 494q0 -78 25 -149t73 -125t117.5 -86t157.5 -32 q90 0 160.5 31.5t119 85.5t74.5 125t26 150q0 77 -25 147.5t-73 124.5t-117 86.5t-157 32.5q-87 0 -157.5 -32t-120 -85.5t-76.5 -124.5t-27 -149zM242 1153l270 338h141l271 -338h-148l-194 248l-197 -248h-143z" />
<glyph unicode="&#xf5;" d="M63 494q0 110 38 204t106.5 163.5t165 109t213.5 39.5q118 0 213.5 -40t162.5 -110t103.5 -164t36.5 -202q0 -109 -38 -203.5t-107 -164t-165.5 -109.5t-213.5 -40t-212 40t-162.5 109.5t-104 164t-36.5 203.5zM205 494q0 -78 25 -149t73 -125t117.5 -86t157.5 -32 q90 0 160.5 31.5t119 85.5t74.5 125t26 150q0 77 -25 147.5t-73 124.5t-117 86.5t-157 32.5q-87 0 -157.5 -32t-120 -85.5t-76.5 -124.5t-27 -149zM250 1217q0 57 14 97t40 65t63 36.5t82 11.5q37 0 72 -13.5t69 -29.5t67 -29.5t66 -13.5q42 0 61 23.5t19 65.5h115 q0 -58 -13 -98t-38.5 -65t-62 -36.5t-83.5 -11.5q-32 0 -68 13t-72.5 29t-71.5 29t-65 13q-40 0 -59.5 -22t-19.5 -64h-115z" />
<glyph unicode="&#xf6;" d="M63 494q0 110 38 204t106.5 163.5t165 109t213.5 39.5q118 0 213.5 -40t162.5 -110t103.5 -164t36.5 -202q0 -109 -38 -203.5t-107 -164t-165.5 -109.5t-213.5 -40t-212 40t-162.5 109.5t-104 164t-36.5 203.5zM205 494q0 -78 25 -149t73 -125t117.5 -86t157.5 -32 q90 0 160.5 31.5t119 85.5t74.5 125t26 150q0 77 -25 147.5t-73 124.5t-117 86.5t-157 32.5q-87 0 -157.5 -32t-120 -85.5t-76.5 -124.5t-27 -149zM287 1319q0 40 27 67t67 27q19 0 36.5 -7t30.5 -20t21 -30t8 -37q0 -19 -8 -36t-21 -30t-30.5 -20.5t-36.5 -7.5 q-20 0 -37 7.5t-30 20.5t-20 30t-7 36zM694 1319q0 20 7.5 37t20.5 30t30 20t36 7q20 0 37.5 -7t30.5 -20t21 -30t8 -37q0 -19 -8 -36t-21 -30t-30.5 -20.5t-37.5 -7.5q-19 0 -36 7.5t-30 20.5t-20.5 30t-7.5 36z" />
<glyph unicode="&#xf7;" horiz-adv-x="1272" d="M125 713v135h999v-135h-999zM532 389q0 37 26.5 62.5t64.5 25.5q37 0 62.5 -25.5t25.5 -62.5t-25.5 -63.5t-62.5 -26.5q-38 0 -64.5 26.5t-26.5 63.5zM532 1171q0 38 26.5 64.5t64.5 26.5q37 0 62.5 -26.5t25.5 -64.5q0 -37 -25.5 -62.5t-62.5 -25.5q-38 0 -64.5 25.5 t-26.5 62.5z" />
<glyph unicode="&#xf8;" d="M59 31l119 123q-56 68 -85.5 154t-29.5 186q0 110 38 204t106.5 163.5t165 109t213.5 39.5q97 0 178.5 -27t144.5 -78l105 107l69 -68l-102 -104q59 -69 90 -157.5t31 -188.5q0 -109 -38 -203.5t-107 -164t-165.5 -109.5t-213.5 -40q-100 0 -182.5 29t-147.5 82 l-121 -123zM205 494q0 -65 17.5 -126t51.5 -112l541 549q-45 37 -101.5 58.5t-127.5 21.5q-87 0 -157.5 -32t-120 -85.5t-76.5 -124.5t-27 -149zM342 188q45 -40 104 -63t132 -23q90 0 160.5 31.5t119 85.5t74.5 125t26 150q0 66 -19 128t-56 113z" />
<glyph unicode="&#xf9;" horiz-adv-x="1036" d="M129 397v590h150v-569q0 -67 10 -125.5t37.5 -101t75 -67t122.5 -24.5t121 24t71.5 66.5t34.5 101t9 126.5v569h149v-590q0 -210 -98 -315t-291 -105q-100 0 -174 29.5t-122 84.5t-71.5 132.5t-23.5 173.5zM221 1485h170l219 -332h-131z" />
<glyph unicode="&#xfa;" horiz-adv-x="1036" d="M129 397v590h150v-569q0 -67 10 -125.5t37.5 -101t75 -67t122.5 -24.5t121 24t71.5 66.5t34.5 101t9 126.5v569h149v-590q0 -210 -98 -315t-291 -105q-100 0 -174 29.5t-122 84.5t-71.5 132.5t-23.5 173.5zM408 1153l219 332h170l-256 -332h-133z" />
<glyph unicode="&#xfb;" horiz-adv-x="1036" d="M129 397v590h150v-569q0 -67 10 -125.5t37.5 -101t75 -67t122.5 -24.5t121 24t71.5 66.5t34.5 101t9 126.5v569h149v-590q0 -210 -98 -315t-291 -105q-100 0 -174 29.5t-122 84.5t-71.5 132.5t-23.5 173.5zM182 1153l271 338h141l270 -338h-147l-195 248l-196 -248h-144z " />
<glyph unicode="&#xfc;" horiz-adv-x="1036" d="M129 397v590h150v-569q0 -67 10 -125.5t37.5 -101t75 -67t122.5 -24.5t121 24t71.5 66.5t34.5 101t9 126.5v569h149v-590q0 -210 -98 -315t-291 -105q-100 0 -174 29.5t-122 84.5t-71.5 132.5t-23.5 173.5zM221 1319q0 40 27 67t67 27q20 0 37.5 -7t30.5 -20t21 -30 t8 -37q0 -19 -8 -36t-21 -30t-30.5 -20.5t-37.5 -7.5t-37 7.5t-30 20.5t-20 30t-7 36zM629 1319q0 20 7.5 37t20.5 30t30 20t36 7t36.5 -7t30.5 -20t21 -30t8 -37q0 -19 -8 -36t-21 -30t-30.5 -20.5t-36.5 -7.5t-36 7.5t-30 20.5t-20.5 30t-7.5 36z" />
<glyph unicode="&#xfd;" horiz-adv-x="1030" d="M-18 987h165l381 -813h4l345 813h159l-682 -1546h-153l252 573zM424 1153l219 332h170l-256 -332h-133z" />
<glyph unicode="&#xfe;" horiz-adv-x="1188" d="M147 -547v2239h148v-879h4q26 42 65 75.5t86 56t99 34.5t104 12q108 0 195.5 -40t149 -109.5t95 -162.5t33.5 -198q0 -109 -34 -201.5t-96 -159.5t-149 -105t-192 -38q-111 0 -205.5 45t-150.5 130h-4v-699h-148zM287 467q0 -76 25 -141.5t71 -113.5t111 -75.5t145 -27.5 q78 0 141.5 30t108.5 80.5t69.5 116.5t24.5 139q0 75 -24 144.5t-69 123t-109.5 85.5t-145.5 32q-84 0 -148.5 -32.5t-109 -86.5t-67.5 -125t-23 -149z" />
<glyph unicode="&#xff;" horiz-adv-x="1030" d="M-18 987h165l381 -813h4l345 813h159l-682 -1546h-153l252 573zM219 1319q0 40 27 67t67 27q20 0 37.5 -7t30.5 -20t21 -30t8 -37q0 -19 -8 -36t-21 -30t-30.5 -20.5t-37.5 -7.5t-37 7.5t-30 20.5t-20 30t-7 36zM627 1319q0 20 7.5 37t20.5 30t30 20t36 7t36.5 -7 t30.5 -20t21 -30t8 -37q0 -19 -8 -36t-21 -30t-30.5 -20.5t-36.5 -7.5t-36 7.5t-30 20.5t-20.5 30t-7.5 36z" />
<glyph unicode="&#x152;" horiz-adv-x="1956" d="M70 772q0 109 26.5 208.5t75.5 185.5t118.5 155.5t156.5 119t189 76.5t216 27h975v-141h-606v-518h587v-137h-587v-607h606v-141h-975q-116 0 -219.5 27.5t-190 78t-155.5 121t-117.5 156t-74 184.5t-25.5 205zM233 772q0 -127 41 -242t122.5 -201t203 -137t281.5 -51 h180v1262h-180q-107 0 -197 -23t-162 -65t-126 -100t-90.5 -128t-54.5 -150t-18 -165z" />
<glyph unicode="&#x153;" horiz-adv-x="2001" d="M63 494q0 110 37.5 204t106 163.5t164 109t211.5 39.5q78 0 146.5 -19t125.5 -54t101.5 -84t74.5 -108q29 59 72.5 107.5t97.5 83.5t118.5 54.5t135.5 19.5q116 0 206.5 -39t153 -110.5t94.5 -170.5t31 -219h-827q1 -86 29.5 -155t77 -117.5t114 -74.5t140.5 -26 q109 0 189 53t134 146l125 -33q-31 -69 -78 -122.5t-107 -90t-130 -55.5t-146 -19q-75 0 -141 19t-121 54t-98.5 84t-73.5 108q-30 -60 -75.5 -109t-103.5 -83.5t-127 -53.5t-147 -19q-115 0 -209 40t-161 109.5t-103.5 164t-36.5 203.5zM205 494q0 -78 25 -149t73 -125 t117.5 -86t157.5 -32q90 0 160.5 31.5t119 85.5t74.5 125t26 150q0 77 -25 147.5t-73 124.5t-117 86.5t-157 32.5q-87 0 -157.5 -32t-120 -85.5t-76.5 -124.5t-27 -149zM1114 575h678q-11 67 -35.5 124.5t-65.5 99.5t-99.5 66t-137.5 24q-71 0 -130.5 -24.5t-103.5 -67 t-71.5 -99.5t-34.5 -123z" />
<glyph unicode="&#x178;" horiz-adv-x="1208" d="M0 1544h182l424 -743h4l418 743h180l-524 -895v-649h-160v649zM307 1817q0 40 27 67t67 27q20 0 37.5 -7t30.5 -20t21 -30t8 -37q0 -19 -8 -36.5t-21 -30.5t-30.5 -20.5t-37.5 -7.5t-37 7.5t-30 20.5t-20 30.5t-7 36.5zM715 1817q0 20 7.5 37t20.5 30t30 20t36 7t36.5 -7 t30.5 -20t21 -30t8 -37q0 -19 -8 -36.5t-21 -30.5t-30.5 -20.5t-36.5 -7.5t-36 7.5t-30 20.5t-20.5 30.5t-7.5 36.5z" />
<glyph unicode="&#x2c6;" horiz-adv-x="918" d="M121 1153l270 338h141l271 -338h-148l-194 248l-197 -248h-143z" />
<glyph unicode="&#x2dc;" horiz-adv-x="928" d="M127 1217q0 57 14 97t40 65t63 36.5t82 11.5q37 0 72 -13.5t69 -29.5t67 -29.5t66 -13.5q42 0 61 23.5t19 65.5h115q0 -58 -13 -98t-38.5 -65t-62 -36.5t-83.5 -11.5q-32 0 -68 13t-72.5 29t-71 29t-64.5 13q-41 0 -60.5 -22t-19.5 -64h-115z" />
<glyph unicode="&#x2013;" horiz-adv-x="1024" d="M102 588v135h820v-135h-820z" />
<glyph unicode="&#x2014;" horiz-adv-x="1536" d="M102 588v135h1332v-135h-1332z" />
<glyph unicode="&#x2018;" horiz-adv-x="635" d="M195 1202q0 44 13.5 95t40 101.5t66.5 97.5t93 83l49 -49q-39 -29 -70 -67t-51 -79.5t-29.5 -83t-5.5 -77.5q29 4 51 -1.5t37 -18.5t23 -31.5t8 -41.5q0 -42 -28 -70t-75 -28q-29 0 -51.5 13t-38.5 36t-24 54t-8 67z" />
<glyph unicode="&#x2019;" horiz-adv-x="635" d="M180 1071q39 29 70 67.5t51 79.5t29 82.5t4 77.5q-57 -6 -87 21.5t-30 70.5q0 42 27.5 70.5t72.5 28.5q30 0 53.5 -13t39 -36t24 -54t8.5 -67q0 -44 -13.5 -95t-40 -101.5t-67 -97.5t-94.5 -83z" />
<glyph unicode="&#x201a;" horiz-adv-x="635" d="M180 -319q39 29 70 67t51 79t29 83t4 78q-57 -6 -87 21.5t-30 72.5q0 42 27.5 69t72.5 27q30 0 53.5 -12.5t39 -35t24 -53.5t8.5 -67q0 -45 -13.5 -95.5t-40 -101t-67 -97.5t-94.5 -83z" />
<glyph unicode="&#x201c;" horiz-adv-x="977" d="M195 1202q0 44 13.5 95t40 101.5t66.5 97.5t93 83l49 -49q-39 -29 -70 -67t-51 -79.5t-29.5 -83t-5.5 -77.5q29 4 51 -1.5t37 -18.5t23 -31.5t8 -41.5q0 -42 -28 -70t-75 -28q-29 0 -51.5 13t-38.5 36t-24 54t-8 67zM537 1202q0 44 13.5 95t40 101.5t66.5 97.5t93 83 l49 -49q-39 -29 -70 -67t-51 -79.5t-29.5 -83t-5.5 -77.5q29 4 51 -1.5t37 -18.5t23 -31.5t8 -41.5q0 -42 -28 -70t-75 -28q-29 0 -51.5 13t-38.5 36t-24 54t-8 67z" />
<glyph unicode="&#x201d;" horiz-adv-x="977" d="M180 1071q39 29 70 67.5t51 79.5t29 82.5t4 77.5q-57 -6 -87 21.5t-30 70.5q0 42 27.5 70.5t72.5 28.5q30 0 53.5 -13t39 -36t24 -54t8.5 -67q0 -44 -13.5 -95t-40 -101.5t-67 -97.5t-94.5 -83zM522 1071q39 29 70 67.5t51 79.5t29 82.5t4 77.5q-57 -6 -87 21.5t-30 70.5 q0 42 27.5 70.5t72.5 28.5q30 0 53.5 -13t39 -36t24 -54t8.5 -67q0 -44 -13.5 -95t-40 -101.5t-67 -97.5t-94.5 -83z" />
<glyph unicode="&#x201e;" horiz-adv-x="977" d="M180 -319q39 29 70 67t51 79t29 83t4 78q-57 -6 -87 21.5t-30 72.5q0 42 27.5 69t72.5 27q30 0 53.5 -12.5t39 -35t24 -53.5t8.5 -67q0 -45 -13.5 -95.5t-40 -101t-67 -97.5t-94.5 -83zM522 -319q39 29 70 67t51 79t29 83t4 78q-57 -6 -87 21.5t-30 72.5q0 42 27.5 69 t72.5 27q30 0 53.5 -12.5t39 -35t24 -53.5t8.5 -67q0 -45 -13.5 -95.5t-40 -101t-67 -97.5t-94.5 -83z" />
<glyph unicode="&#x2022;" horiz-adv-x="596" d="M66 772q0 48 17.5 89.5t49 72.5t74 49t92.5 18t92.5 -18t73 -49t48 -72.5t17.5 -89.5t-17.5 -90.5t-48 -73.5t-73 -49t-92.5 -18t-92.5 18t-74 49t-49 73.5t-17.5 90.5z" />
<glyph unicode="&#x2026;" horiz-adv-x="1589" d="M223 72q0 20 7.5 37.5t20.5 31t30.5 21.5t37.5 8t38 -8t31 -21.5t20.5 -31t7.5 -37.5q0 -41 -28 -69t-69 -28q-40 0 -68 28t-28 69zM698 72q0 20 7.5 37.5t20.5 31t31 21.5t38 8t37.5 -8t30.5 -21.5t20.5 -31t7.5 -37.5q0 -41 -28 -69t-68 -28q-41 0 -69 28t-28 69z M1174 72q0 20 7.5 37.5t20.5 31t30.5 21.5t37.5 8t37.5 -8t30.5 -21.5t20.5 -31t7.5 -37.5q0 -41 -28 -69t-68 -28t-68 28t-28 69z" />
<glyph unicode="&#x2039;" horiz-adv-x="594" d="M68 504l309 377l90 -72l-250 -305l250 -305l-90 -74z" />
<glyph unicode="&#x203a;" horiz-adv-x="594" d="M127 199l252 305l-250 305l88 72l309 -377l-309 -379z" />
<glyph unicode="&#x20ac;" horiz-adv-x="1294" d="M31 539v114h166q-2 28 -3 58t-1 61t1 60t3 57h-166v115h180q27 139 85.5 244.5t143 177t191.5 107.5t231 36q52 0 105.5 -9.5t103 -25t92.5 -37t74 -45.5v-174h-2q-31 32 -73.5 59t-91.5 46t-102.5 29.5t-105.5 10.5q-90 0 -169 -27t-142 -80t-108.5 -131t-69.5 -181h655 v-115h-674q-2 -28 -3 -56t-1 -59q0 -62 6 -121h672v-114h-651q23 -102 68.5 -180t108.5 -131t141.5 -80t168.5 -27q51 0 104.5 11t102.5 30.5t91.5 46t72.5 57.5h2v-172q-31 -24 -74 -45t-92.5 -37t-102.5 -25.5t-104 -9.5q-124 0 -231.5 36t-192.5 107t-143.5 176 t-85.5 243h-180z" />
<glyph unicode="&#x2122;" horiz-adv-x="1071" d="M72 1462v82h317v-82h-115v-418h-88v418h-114zM406 1044l100 502h63l131 -348l136 348h65l98 -502h-90l-57 310h-6l-119 -320h-53l-119 322h-6l-57 -312h-86z" />
<glyph unicode="&#xe000;" horiz-adv-x="985" d="M0 985h985v-985h-985v985z" />
<glyph unicode="&#xfb01;" horiz-adv-x="1051" d="M49 854v133h113v375q0 85 27 151t75.5 111t115.5 68.5t146 23.5q85 0 152.5 -25t115 -71.5t72.5 -113t25 -148.5h-150q0 108 -58.5 166.5t-158.5 58.5q-42 0 -80.5 -11.5t-68 -38t-47 -71t-17.5 -110.5v-365h248v-133h-248v-854h-149v854h-113zM741 0v987h150v-987h-150z " />
<glyph unicode="&#xfb02;" horiz-adv-x="1051" d="M49 854v133h113v377q0 80 25.5 145t72.5 111t115 71t153 25t152 -25t114 -70.5t72 -110.5t25 -146v-1364h-150v1352q0 108 -55.5 169.5t-159.5 61.5q-100 0 -157.5 -58t-57.5 -173v-365h248v-133h-248v-854h-149v854h-113z" />
<glyph unicode="&#xfb03;" horiz-adv-x="1593" d="M1265 1319q0 40 28 67t69 27q19 0 36.5 -7t30.5 -20t21 -30t8 -37q0 -19 -8 -36t-21 -30t-30.5 -20.5t-36.5 -7.5q-20 0 -38 7.5t-31 20.5t-20.5 30t-7.5 36zM1286 0v987h149v-987h-149zM612 854v133h113v389q0 89 22 153.5t61 106t93.5 61t118.5 19.5q21 0 51.5 -4.5 t50.5 -13.5v-135q-40 18 -88 18q-38 0 -68 -11.5t-50.5 -38.5t-31 -71.5t-10.5 -111.5v-361h248v-133h-248v-854h-149v854h-113zM49 854v133h113v389q0 89 22 153.5t61 106t93.5 61t118.5 19.5q21 0 51.5 -4.5t50.5 -13.5v-135q-40 18 -88 18q-38 0 -68 -11.5t-50.5 -38.5 t-31 -71.5t-10.5 -111.5v-361h248v-133h-248v-854h-149v854h-113z" />
<glyph unicode="&#xfb04;" horiz-adv-x="1593" d="M1286 0v1692h149v-1692h-149zM612 854v133h113v389q0 89 22 153.5t61 106t93.5 61t118.5 19.5q21 0 51.5 -4.5t50.5 -13.5v-135q-40 18 -88 18q-38 0 -68 -11.5t-50.5 -38.5t-31 -71.5t-10.5 -111.5v-361h248v-133h-248v-854h-149v854h-113zM49 854v133h113v389 q0 89 22 153.5t61 106t93.5 61t118.5 19.5q21 0 51.5 -4.5t50.5 -13.5v-135q-40 18 -88 18q-38 0 -68 -11.5t-50.5 -38.5t-31 -71.5t-10.5 -111.5v-361h248v-133h-248v-854h-149v854h-113z" />
</font>
</defs>
</svg>
